<svg width="8" height="10" viewBox="0 0 8 10" fill="none" xmlns="http://www.w3.org/2000/svg">
<path d="M3.90742 0.592354C4.06918 0.646705 4.18731 0.768868 4.30343 0.898513C5.40534 2.12888 6.50881 3.35775 7.61228 4.58663C7.73556 4.724 7.81946 4.87907 7.8217 5.08002C7.82393 5.28446 7.74384 5.44477 7.61787 5.58488C7.12341 6.13462 6.62963 6.68561 6.13584 7.2361C5.50087 7.94365 4.86524 8.65096 4.23094 9.35951C4.09715 9.5091 3.94478 9.60633 3.74857 9.59063C3.5217 9.57243 3.35591 9.44777 3.26104 9.2194C3.16886 8.99701 3.19213 8.77985 3.31921 8.5799C3.35233 8.5278 3.39349 8.48117 3.43421 8.4358C4.40881 7.34904 5.38386 6.26277 6.3589 5.17651C6.43721 5.08925 6.43721 5.089 6.35779 5.00024C5.37737 3.90749 4.39695 2.81475 3.41609 1.7225C3.29058 1.58263 3.20757 1.42357 3.20891 1.21913C3.2107 0.950121 3.36105 0.712773 3.58971 0.622023C3.61186 0.613297 3.63356 0.602326 3.65549 0.592604C3.73917 0.592354 3.82329 0.592354 3.90742 0.592354Z" fill="#FDF4E8"/>
<path d="M0.807809 0.592354C0.969571 0.646705 1.0877 0.768868 1.20382 0.898513C2.30573 2.12888 3.4092 3.35775 4.51267 4.58663C4.63595 4.724 4.71985 4.87907 4.72209 5.08002C4.72432 5.28446 4.64423 5.44477 4.51826 5.58488C4.0238 6.13462 3.53002 6.68561 3.03623 7.2361C2.40126 7.94365 1.76563 8.65096 1.13133 9.35951C0.997538 9.5091 0.845173 9.60633 0.648956 9.59063C0.422086 9.57243 0.256297 9.44777 0.161433 9.2194C0.0692533 8.99701 0.0925219 8.77985 0.219605 8.5799C0.252718 8.5278 0.293885 8.48117 0.334605 8.4358C1.3092 7.34904 2.28425 6.26277 3.2593 5.17651C3.3376 5.08925 3.3376 5.089 3.25818 5.00024C2.27776 3.90749 1.29735 2.81475 0.316483 1.7225C0.190966 1.58263 0.10796 1.42357 0.109302 1.21913C0.111092 0.950121 0.261443 0.712773 0.490103 0.622023C0.512253 0.613297 0.533955 0.602326 0.555881 0.592604C0.639559 0.592354 0.723684 0.592354 0.807809 0.592354Z" fill="#FDF4E8"/>
</svg>
