<svg width="11" height="16" viewBox="0 0 11 16" fill="none" xmlns="http://www.w3.org/2000/svg">
<path d="M5.19397 2.91264C5.19397 2.9776 5.19397 3.03823 5.19397 3.10319C5.19397 7.03102 5.19397 10.9589 5.19397 14.8867C5.19397 14.9906 5.19001 15.0946 5.21379 15.1942C5.28116 15.519 5.58234 15.7485 5.87956 15.7138C6.20452 15.6749 6.43833 15.4107 6.45815 15.0642C6.46211 14.995 6.46211 14.9257 6.46211 14.852C6.46211 10.9372 6.46211 7.01803 6.46211 3.10319C6.46211 3.03823 6.46211 2.9776 6.46211 2.86933C6.52948 2.93862 6.56911 2.9776 6.60874 3.0209C7.66684 4.17284 8.72494 5.3291 9.78305 6.48104C10.0446 6.76685 10.4052 6.79717 10.6668 6.55466C10.9323 6.31214 10.9719 5.89208 10.7579 5.59327C10.7262 5.54563 10.6866 5.50666 10.647 5.46335C9.21635 3.90001 7.78177 2.33667 6.34719 0.777666C6.00241 0.400906 5.65764 0.400906 5.31286 0.777666C3.87036 2.34967 2.42785 3.926 0.981379 5.498C0.791158 5.70586 0.700011 5.93971 0.775306 6.22986C0.898158 6.70623 1.42919 6.88811 1.77793 6.58064C1.82548 6.54166 1.86511 6.49403 1.9087 6.44639C2.95492 5.30312 4.00509 4.16418 5.05131 3.01658C5.09094 2.97327 5.11075 2.91697 5.14246 2.86933C5.15434 2.88666 5.17416 2.89965 5.19397 2.91264Z" fill="white"/>
</svg>
