<svg width="23" height="16" viewBox="0 0 23 16" fill="none" xmlns="http://www.w3.org/2000/svg">
<rect x="0.560059" width="22" height="15.5" rx="7.75" fill="#EA9117"/>
<g clip-path="url(#clip0_571_2031)">
<path d="M11.4985 3.38184C11.8267 3.38184 12.0903 3.48145 12.2896 3.68066C12.4888 3.87988 12.5884 4.14355 12.5884 4.47168V6.65137H14.7681C15.0962 6.65137 15.3599 6.75098 15.5591 6.9502C15.7583 7.14941 15.8579 7.41309 15.8579 7.74121C15.8579 8.06934 15.7583 8.33301 15.5591 8.53223C15.3599 8.73145 15.0962 8.83105 14.7681 8.83105H12.5884V11.0107C12.5884 11.3389 12.4888 11.6025 12.2896 11.8018C12.0903 12.001 11.8267 12.1006 11.4985 12.1006C11.1704 12.1006 10.9067 12.001 10.7075 11.8018C10.5083 11.6025 10.4087 11.3389 10.4087 11.0107V8.83105H8.229C7.90088 8.83105 7.63721 8.73145 7.43799 8.53223C7.23877 8.33301 7.13916 8.06934 7.13916 7.74121C7.13916 7.41309 7.23877 7.14941 7.43799 6.9502C7.63721 6.75098 7.90088 6.65137 8.229 6.65137H10.4087V4.47168C10.4087 4.14355 10.5083 3.87988 10.7075 3.68066C10.9067 3.48145 11.1704 3.38184 11.4985 3.38184Z" fill="white"/>
</g>
<defs>
<clipPath id="clip0_571_2031">
<rect width="9" height="9" fill="white" transform="matrix(1 0 0 -1 7.06006 12.25)"/>
</clipPath>
</defs>
</svg>
