<svg width="62" height="22" viewBox="0 0 62 22" fill="none" xmlns="http://www.w3.org/2000/svg">
<rect width="62" height="22" rx="9.75" fill="#EA9117"/>
<path d="M18.2623 17.585C16.9623 17.585 15.9573 17.21 15.2473 16.46C14.5473 15.72 14.1973 14.68 14.1973 13.34V10.34H16.1023V13.295C16.1023 14.055 16.2773 14.625 16.6273 15.005C16.9773 15.395 17.5223 15.59 18.2623 15.59H18.8623C19.5823 15.59 20.1473 15.4 20.5573 15.02C20.9673 14.64 21.1723 14.115 21.1723 13.445V8.84H23.0773V13.295C23.0773 14.195 22.9023 14.965 22.5523 15.605C22.2023 16.255 21.7073 16.745 21.0673 17.075C20.4373 17.415 19.7023 17.585 18.8623 17.585H18.2623ZM17.2873 8.615V6.905H19.3273V8.615H17.2873ZM28.3211 12.005C28.3711 12.005 28.4061 12.07 28.4261 12.2C28.4561 12.33 28.4711 12.61 28.4711 13.04C28.4711 13.44 28.4561 13.7 28.4261 13.82C28.4061 13.94 28.3711 14 28.3211 14H27.7811C26.9411 14 26.3011 13.76 25.8611 13.28C25.4311 12.79 25.2161 12.095 25.2161 11.195V4.34H27.1361V11.06C27.1361 11.38 27.1961 11.62 27.3161 11.78C27.4461 11.93 27.6461 12.005 27.9161 12.005H28.3211ZM28.7142 12.005C28.9942 12.005 29.1892 11.95 29.2992 11.84C29.4192 11.73 29.4792 11.55 29.4792 11.3V10.88C29.4792 9.91 29.7542 9.145 30.3042 8.585C30.8642 8.015 31.6192 7.73 32.5692 7.73C33.5192 7.73 34.2442 8.005 34.7442 8.555C35.2542 9.095 35.5092 9.875 35.5092 10.895C35.5092 11.875 35.2442 12.64 34.7142 13.19C34.1842 13.73 33.4442 14 32.4942 14C31.9942 14 31.5792 13.94 31.2492 13.82C30.9192 13.69 30.6742 13.51 30.5142 13.28C30.3242 13.53 30.0842 13.715 29.7942 13.835C29.5142 13.945 29.1542 14 28.7142 14H28.3242C28.2242 14 28.1742 13.68 28.1742 13.04C28.1742 12.35 28.2242 12.005 28.3242 12.005H28.7142ZM33.6192 10.895C33.6192 10.055 33.2442 9.635 32.4942 9.635C31.7442 9.635 31.3692 10.055 31.3692 10.895C31.3692 11.255 31.4592 11.535 31.6392 11.735C31.8292 11.925 32.1142 12.02 32.4942 12.02C32.8742 12.02 33.1542 11.93 33.3342 11.75C33.5242 11.56 33.6192 11.275 33.6192 10.895ZM44.6576 12.005C44.7576 12.005 44.8076 12.35 44.8076 13.04C44.8076 13.68 44.7576 14 44.6576 14H43.4726C43.3726 15.12 42.9776 15.995 42.2876 16.625C41.5976 17.265 40.7026 17.585 39.6026 17.585H37.5476L37.3826 15.59H39.7226C40.3126 15.59 40.7726 15.445 41.1026 15.155C41.4326 14.875 41.5976 14.49 41.5976 14H40.5476C39.4676 14 38.6926 13.775 38.2226 13.325C37.7626 12.875 37.5326 12.16 37.5326 11.18C37.5326 10.54 37.6576 9.97 37.9076 9.47C38.1576 8.97 38.5076 8.58 38.9576 8.3C39.4176 8.02 39.9476 7.88 40.5476 7.88C41.4676 7.88 42.1876 8.18 42.7076 8.78C43.2376 9.38 43.5026 10.21 43.5026 11.27V12.005H44.6576ZM39.4226 11.105C39.4226 11.425 39.5076 11.66 39.6776 11.81C39.8576 11.95 40.1726 12.02 40.6226 12.02H41.5976V11.24C41.5976 10.76 41.5026 10.395 41.3126 10.145C41.1226 9.895 40.8476 9.77 40.4876 9.77C40.1476 9.77 39.8826 9.895 39.6926 10.145C39.5126 10.385 39.4226 10.705 39.4226 11.105ZM48.8722 11.33C48.8722 12.16 48.6222 12.815 48.1222 13.295C47.6322 13.765 46.9672 14 46.1272 14H44.6572C44.5572 14 44.5072 13.68 44.5072 13.04C44.5072 12.35 44.5572 12.005 44.6572 12.005H46.1272C46.3772 12.005 46.5772 11.94 46.7272 11.81C46.8872 11.67 46.9672 11.48 46.9672 11.24V8.84H48.8722V11.33ZM49.2322 5.57V7.28H45.0022V5.57H49.2322Z" fill="white"/>
</svg>
