<svg width="24" height="24" viewBox="0 0 24 24" fill="none" xmlns="http://www.w3.org/2000/svg">
<path d="M19.24 5.58H18.84L15.46 2.2C15.19 1.93 14.75 1.93 14.47 2.2C14.2 2.47 14.2 2.91 14.47 3.19L16.86 5.58H7.14L9.53 3.19C9.8 2.92 9.8 2.48 9.53 2.2C9.26 1.93 8.82 1.93 8.54 2.2L5.17 5.58H4.77C3.87 5.58 2 5.58 2 8.14C2 9.11 2.2 9.75 2.62 10.17C2.86 10.42 3.15 10.55 3.46 10.62C3.75 10.69 4.06 10.7 4.36 10.7H19.64C19.95 10.7 20.24 10.68 20.52 10.62C21.36 10.42 22 9.82 22 8.14C22 5.58 20.13 5.58 19.24 5.58Z" fill="#F6F6F6"/>
<path d="M19.0502 12H4.87016C4.25016 12 3.78016 12.55 3.88016 13.16L4.72016 18.3C5.00015 20.02 5.75015 22 9.08015 22H14.6902C18.0602 22 18.6602 20.31 19.0202 18.42L20.0302 13.19C20.1502 12.57 19.6802 12 19.0502 12ZM10.6102 18.45C10.6102 18.84 10.3002 19.15 9.92016 19.15C9.53016 19.15 9.22016 18.84 9.22016 18.45V15.15C9.22016 14.77 9.53016 14.45 9.92016 14.45C10.3002 14.45 10.6102 14.77 10.6102 15.15V18.45ZM14.8902 18.45C14.8902 18.84 14.5802 19.15 14.1902 19.15C13.8102 19.15 13.4902 18.84 13.4902 18.45V15.15C13.4902 14.77 13.8102 14.45 14.1902 14.45C14.5802 14.45 14.8902 14.77 14.8902 15.15V18.45Z" fill="#F6F6F6"/>
</svg>
