<svg width="25" height="24" viewBox="0 0 25 24" fill="none" xmlns="http://www.w3.org/2000/svg">
<path d="M5.68988 6.38017C5.49988 6.38017 5.29988 6.30017 5.15988 6.16017C4.86988 5.87017 4.86988 5.39017 5.15988 5.10017L8.78988 1.47017C9.07988 1.18017 9.55988 1.18017 9.84988 1.47017C10.1399 1.76017 10.1399 2.24017 9.84988 2.53017L6.21988 6.16017C6.06988 6.30017 5.87988 6.38017 5.68988 6.38017Z" fill="white"/>
<path d="M19.3101 6.38017C19.1201 6.38017 18.9301 6.31017 18.7801 6.16017L15.1501 2.53017C14.8601 2.24017 14.8601 1.76017 15.1501 1.47017C15.4401 1.18017 15.9201 1.18017 16.2101 1.47017L19.8401 5.10017C20.1301 5.39017 20.1301 5.87017 19.8401 6.16017C19.7001 6.30017 19.5001 6.38017 19.3101 6.38017Z" fill="white"/>
<path d="M20.71 10.6002C20.64 10.6002 20.57 10.6002 20.5 10.6002H20.27H4.5C3.8 10.6102 3 10.6102 2.42 10.0302C1.96 9.58017 1.75 8.88017 1.75 7.85017C1.75 5.10017 3.76 5.10017 4.72 5.10017H20.28C21.24 5.10017 23.25 5.10017 23.25 7.85017C23.25 8.89017 23.04 9.58017 22.58 10.0302C22.06 10.5502 21.36 10.6002 20.71 10.6002ZM4.72 9.10017H20.51C20.96 9.11017 21.38 9.11017 21.52 8.97017C21.59 8.90017 21.74 8.66017 21.74 7.85017C21.74 6.72017 21.46 6.60017 20.27 6.60017H4.72C3.53 6.60017 3.25 6.72017 3.25 7.85017C3.25 8.66017 3.41 8.90017 3.47 8.97017C3.61 9.10017 4.04 9.10017 4.48 9.10017H4.72Z" fill="white"/>
<path d="M10.2598 18.3002C9.84977 18.3002 9.50977 17.9602 9.50977 17.5502V14.0002C9.50977 13.5902 9.84977 13.2502 10.2598 13.2502C10.6698 13.2502 11.0098 13.5902 11.0098 14.0002V17.5502C11.0098 17.9702 10.6698 18.3002 10.2598 18.3002Z" fill="white"/>
<path d="M14.8599 18.3002C14.4499 18.3002 14.1099 17.9602 14.1099 17.5502V14.0002C14.1099 13.5902 14.4499 13.2502 14.8599 13.2502C15.2699 13.2502 15.6099 13.5902 15.6099 14.0002V17.5502C15.6099 17.9702 15.2699 18.3002 14.8599 18.3002Z" fill="white"/>
<path d="M15.3902 22.7502H9.36024C5.78024 22.7502 4.98024 20.6202 4.67024 18.7702L3.26024 10.1202C3.19024 9.71017 3.47024 9.33017 3.88024 9.26017C4.29024 9.19017 4.67024 9.47017 4.74024 9.88017L6.15024 18.5202C6.44024 20.2902 7.04024 21.2502 9.36024 21.2502H15.3902C17.9602 21.2502 18.2502 20.3502 18.5802 18.6102L20.2602 9.86017C20.3402 9.45017 20.7302 9.18017 21.1402 9.27017C21.5502 9.35017 21.8102 9.74017 21.7302 10.1502L20.0502 18.9002C19.6602 20.9302 19.0102 22.7502 15.3902 22.7502Z" fill="white"/>
</svg>
