<svg width="24" height="25" viewBox="0 0 24 25" fill="none" xmlns="http://www.w3.org/2000/svg">
<path d="M8 6.25C7.59 6.25 7.25 5.91 7.25 5.5V2.5C7.25 2.09 7.59 1.75 8 1.75C8.41 1.75 8.75 2.09 8.75 2.5V5.5C8.75 5.91 8.41 6.25 8 6.25Z" fill="#EA9117"/>
<path d="M16 6.25C15.59 6.25 15.25 5.91 15.25 5.5V2.5C15.25 2.09 15.59 1.75 16 1.75C16.41 1.75 16.75 2.09 16.75 2.5V5.5C16.75 5.91 16.41 6.25 16 6.25Z" fill="#EA9117"/>
<path d="M8.5 15.0001C8.37 15.0001 8.24 14.9701 8.12 14.9201C7.99 14.8701 7.89 14.8001 7.79 14.7101C7.61 14.5201 7.5 14.2701 7.5 14.0001C7.5 13.8701 7.53 13.7401 7.58 13.6201C7.63 13.5001 7.7 13.3901 7.79 13.2901C7.89 13.2001 7.99 13.1301 8.12 13.0801C8.48 12.9301 8.93 13.0101 9.21 13.2901C9.39 13.4801 9.5 13.7401 9.5 14.0001C9.5 14.0601 9.49 14.1301 9.48 14.2001C9.47 14.2601 9.45 14.3201 9.42 14.3801C9.4 14.4401 9.37 14.5001 9.33 14.5601C9.3 14.6101 9.25 14.6601 9.21 14.7101C9.02 14.8901 8.76 15.0001 8.5 15.0001Z" fill="#EA9117"/>
<path d="M12 15C11.87 15 11.74 14.97 11.62 14.92C11.49 14.87 11.39 14.8 11.29 14.71C11.11 14.52 11 14.27 11 14C11 13.87 11.03 13.74 11.08 13.62C11.13 13.5 11.2 13.39 11.29 13.29C11.39 13.2 11.49 13.13 11.62 13.08C11.98 12.92 12.43 13.01 12.71 13.29C12.89 13.48 13 13.74 13 14C13 14.06 12.99 14.13 12.98 14.2C12.97 14.26 12.95 14.32 12.92 14.38C12.9 14.44 12.87 14.5 12.83 14.56C12.8 14.61 12.75 14.66 12.71 14.71C12.52 14.89 12.26 15 12 15Z" fill="#EA9117"/>
<path d="M15.5 15C15.37 15 15.24 14.97 15.12 14.92C14.99 14.87 14.89 14.8 14.79 14.71C14.75 14.66 14.71 14.61 14.67 14.56C14.63 14.5 14.6 14.44 14.58 14.38C14.55 14.32 14.53 14.26 14.52 14.2C14.51 14.13 14.5 14.06 14.5 14C14.5 13.74 14.61 13.48 14.79 13.29C14.89 13.2 14.99 13.13 15.12 13.08C15.49 12.92 15.93 13.01 16.21 13.29C16.39 13.48 16.5 13.74 16.5 14C16.5 14.06 16.49 14.13 16.48 14.2C16.47 14.26 16.45 14.32 16.42 14.38C16.4 14.44 16.37 14.5 16.33 14.56C16.3 14.61 16.25 14.66 16.21 14.71C16.02 14.89 15.76 15 15.5 15Z" fill="#EA9117"/>
<path d="M8.5 18.4999C8.37 18.4999 8.24 18.47 8.12 18.42C8 18.37 7.89 18.2999 7.79 18.2099C7.61 18.0199 7.5 17.7599 7.5 17.4999C7.5 17.3699 7.53 17.2399 7.58 17.1199C7.63 16.9899 7.7 16.88 7.79 16.79C8.16 16.42 8.84 16.42 9.21 16.79C9.39 16.98 9.5 17.2399 9.5 17.4999C9.5 17.7599 9.39 18.0199 9.21 18.2099C9.02 18.3899 8.76 18.4999 8.5 18.4999Z" fill="#EA9117"/>
<path d="M12 18.4999C11.74 18.4999 11.48 18.3899 11.29 18.2099C11.11 18.0199 11 17.7599 11 17.4999C11 17.3699 11.03 17.2399 11.08 17.1199C11.13 16.9899 11.2 16.88 11.29 16.79C11.66 16.42 12.34 16.42 12.71 16.79C12.8 16.88 12.87 16.9899 12.92 17.1199C12.97 17.2399 13 17.3699 13 17.4999C13 17.7599 12.89 18.0199 12.71 18.2099C12.52 18.3899 12.26 18.4999 12 18.4999Z" fill="#EA9117"/>
<path d="M15.5 18.5C15.24 18.5 14.98 18.39 14.79 18.21C14.7 18.12 14.63 18.01 14.58 17.88C14.53 17.76 14.5 17.63 14.5 17.5C14.5 17.37 14.53 17.24 14.58 17.12C14.63 16.99 14.7 16.88 14.79 16.79C15.02 16.56 15.37 16.45 15.69 16.52C15.76 16.53 15.82 16.55 15.88 16.58C15.94 16.6 16 16.63 16.06 16.67C16.11 16.7 16.16 16.75 16.21 16.79C16.39 16.98 16.5 17.24 16.5 17.5C16.5 17.76 16.39 18.02 16.21 18.21C16.02 18.39 15.76 18.5 15.5 18.5Z" fill="#EA9117"/>
<path d="M20.5 10.34H3.5C3.09 10.34 2.75 9.99997 2.75 9.58997C2.75 9.17997 3.09 8.83997 3.5 8.83997H20.5C20.91 8.83997 21.25 9.17997 21.25 9.58997C21.25 9.99997 20.91 10.34 20.5 10.34Z" fill="#EA9117"/>
<path d="M16 23.25H8C4.35 23.25 2.25 21.15 2.25 17.5V9C2.25 5.35 4.35 3.25 8 3.25H16C19.65 3.25 21.75 5.35 21.75 9V17.5C21.75 21.15 19.65 23.25 16 23.25ZM8 4.75C5.14 4.75 3.75 6.14 3.75 9V17.5C3.75 20.36 5.14 21.75 8 21.75H16C18.86 21.75 20.25 20.36 20.25 17.5V9C20.25 6.14 18.86 4.75 16 4.75H8Z" fill="#EA9117"/>
</svg>
