<svg width="37" height="38" viewBox="0 0 37 38" fill="none" xmlns="http://www.w3.org/2000/svg">
<path d="M26.9022 35.9154C25.1602 35.9154 23.3256 35.4991 21.4293 34.6974C19.5793 33.9112 17.7139 32.832 15.8947 31.5216C14.091 30.1958 12.3489 28.7158 10.6993 27.097C9.06516 25.4475 7.58516 23.7054 6.27475 21.917C4.94891 20.067 3.88516 18.217 3.12975 16.4287C2.32808 14.517 1.92725 12.667 1.92725 10.9249C1.92725 9.72245 2.14308 8.58161 2.55933 7.51786C2.991 6.42328 3.68475 5.40578 4.62516 4.52703C5.81225 3.35536 7.16891 2.76953 8.61808 2.76953C9.21933 2.76953 9.836 2.90828 10.3602 3.15495C10.9614 3.43245 11.4702 3.8487 11.8402 4.4037L15.4168 9.44495C15.7406 9.89203 15.9872 10.3237 16.1568 10.7554C16.3572 11.2179 16.4652 11.6804 16.4652 12.1274C16.4652 12.7133 16.2956 13.2837 15.9718 13.8233C15.7406 14.2395 15.386 14.6866 14.9389 15.1337L13.8906 16.2283C13.906 16.2745 13.9214 16.3054 13.9368 16.3362C14.1218 16.6599 14.4918 17.2149 15.201 18.0474C15.9564 18.9108 16.6656 19.697 17.3747 20.4216C18.2843 21.3158 19.0397 22.0249 19.7489 22.6108C20.6277 23.3508 21.1981 23.7208 21.5372 23.8904L21.5064 23.9674L22.6318 22.8574C23.1097 22.3795 23.5722 22.025 24.0193 21.7937C24.8672 21.2695 25.9464 21.177 27.0256 21.6241C27.4264 21.7937 27.8581 22.0249 28.3206 22.3487L33.4389 25.987C34.0093 26.3724 34.4256 26.8658 34.6722 27.4516C34.9035 28.0374 35.0114 28.577 35.0114 29.1166C35.0114 29.8566 34.8418 30.5966 34.5181 31.2904C34.1943 31.9841 33.7935 32.5854 33.2847 33.1404C32.406 34.1116 31.4502 34.8054 30.3402 35.2524C29.2764 35.6841 28.1202 35.9154 26.9022 35.9154ZM8.61808 5.08203C7.77016 5.08203 6.98391 5.45203 6.2285 6.19203C5.51933 6.85495 5.026 7.57953 4.71766 8.36578C4.39391 9.16745 4.23975 10.0154 4.23975 10.9249C4.23975 12.3587 4.57891 13.9158 5.25725 15.5191C5.951 17.1533 6.92225 18.8491 8.15558 20.5449C9.38891 22.2408 10.7918 23.8904 12.3335 25.4474C13.8752 26.9737 15.5402 28.392 17.2514 29.6408C18.9164 30.8587 20.6277 31.8454 22.3235 32.5545C24.9597 33.6799 27.4264 33.942 29.4614 33.0941C30.2477 32.7704 30.9414 32.277 31.5735 31.5679C31.9281 31.1824 32.2056 30.7662 32.4368 30.2729C32.6218 29.8874 32.7143 29.4866 32.7143 29.0858C32.7143 28.8391 32.6681 28.5924 32.5447 28.3149C32.4985 28.2224 32.406 28.0529 32.1131 27.8524L26.9947 24.2141C26.6864 23.9983 26.4089 23.8441 26.1468 23.7362C25.8077 23.5975 25.6689 23.4587 25.1447 23.7824C24.8364 23.9366 24.5589 24.1679 24.2506 24.4762L23.0789 25.6324C22.4777 26.2183 21.5527 26.357 20.8435 26.0949L20.4272 25.91C19.7952 25.5708 19.0552 25.0466 18.2381 24.3529C17.4981 23.7208 16.6964 22.9808 15.7252 22.0249C14.9697 21.2541 14.2143 20.437 13.4281 19.5274C12.7035 18.6795 12.1793 17.9549 11.8556 17.3537L11.6706 16.8912C11.5781 16.5366 11.5472 16.3362 11.5472 16.1204C11.5472 15.5654 11.7477 15.072 12.1331 14.6866L13.2893 13.4841C13.5977 13.1758 13.8289 12.8829 13.9831 12.6208C14.1064 12.4204 14.1527 12.2508 14.1527 12.0966C14.1527 11.9733 14.1064 11.7883 14.0293 11.6033C13.9214 11.3566 13.7518 11.0791 13.536 10.7862L9.95933 5.72953C9.80516 5.5137 9.62016 5.35953 9.38891 5.25161C9.14225 5.1437 8.88016 5.08203 8.61808 5.08203ZM21.5064 23.9829L21.2597 25.0312L21.676 23.952C21.5989 23.9366 21.5372 23.952 21.5064 23.9829Z" fill="#353535"/>
<path d="M28.5208 15.8734C27.8888 15.8734 27.3646 15.3492 27.3646 14.7171C27.3646 14.1621 26.8096 13.0059 25.8846 12.0192C24.975 11.048 23.9729 10.4775 23.125 10.4775C22.4929 10.4775 21.9688 9.95337 21.9688 9.32129C21.9688 8.68921 22.4929 8.16504 23.125 8.16504C24.6204 8.16504 26.1929 8.96671 27.565 10.4313C28.8446 11.8034 29.6771 13.4838 29.6771 14.7171C29.6771 15.3492 29.1529 15.8734 28.5208 15.8734Z" fill="#353535"/>
<path d="M33.9167 15.8737C33.2846 15.8737 32.7604 15.3495 32.7604 14.7174C32.7604 9.3987 28.4438 5.08203 23.125 5.08203C22.4929 5.08203 21.9688 4.55786 21.9688 3.92578C21.9688 3.2937 22.4929 2.76953 23.125 2.76953C29.7079 2.76953 35.0729 8.13453 35.0729 14.7174C35.0729 15.3495 34.5488 15.8737 33.9167 15.8737Z" fill="#353535"/>
</svg>
