<svg width="24" height="25" viewBox="0 0 24 25" fill="none" xmlns="http://www.w3.org/2000/svg">
<path d="M6.55 23.25C7.68 23.25 8.87 22.98 10.1 22.46C11.3 21.95 12.51 21.25 13.69 20.4C14.86 19.54 15.99 18.58 17.06 17.53C18.12 16.46 19.08 15.33 19.93 14.17C20.79 12.97 21.48 11.77 21.97 10.61C22.49 9.37 22.75 8.17 22.75 7.04C22.75 6.26 22.61 5.52 22.34 4.83C22.06 4.12 21.61 3.46 21 2.89C20.23 2.13 19.35 1.75 18.41 1.75C18.02 1.75 17.62 1.84 17.28 2C16.89 2.18 16.56 2.45 16.32 2.81L14 6.08C13.79 6.37 13.63 6.65 13.52 6.93C13.39 7.23 13.32 7.53 13.32 7.82C13.32 8.2 13.43 8.57 13.64 8.92C13.79 9.19 14.02 9.48 14.31 9.77L14.99 10.48C14.98 10.51 14.97 10.53 14.96 10.55C14.84 10.76 14.6 11.12 14.14 11.66C13.65 12.22 13.19 12.73 12.73 13.2C12.14 13.78 11.65 14.24 11.19 14.62C10.62 15.1 10.25 15.34 10.03 15.45L10.05 15.5L9.32 14.78C9.01 14.47 8.71 14.24 8.42 14.09C7.87 13.75 7.17 13.69 6.47 13.98C6.21 14.09 5.93 14.24 5.63 14.45L2.31 16.81C1.94 17.06 1.67 17.38 1.51 17.76C1.36 18.14 1.29 18.49 1.29 18.84C1.29 19.32 1.4 19.8 1.61 20.25C1.82 20.7 2.08 21.09 2.41 21.45C2.98 22.08 3.6 22.53 4.32 22.82C5.01 23.1 5.76 23.25 6.55 23.25ZM18.41 3.25C18.96 3.25 19.47 3.49 19.96 3.97C20.42 4.4 20.74 4.87 20.94 5.38C21.15 5.9 21.25 6.45 21.25 7.04C21.25 7.97 21.03 8.98 20.59 10.02C20.14 11.08 19.51 12.18 18.71 13.28C17.91 14.38 17 15.45 16 16.46C15 17.45 13.92 18.37 12.81 19.18C11.73 19.97 10.62 20.61 9.52 21.07C7.81 21.8 6.21 21.97 4.89 21.42C4.38 21.21 3.93 20.89 3.52 20.43C3.29 20.18 3.11 19.91 2.96 19.59C2.84 19.34 2.78 19.08 2.78 18.82C2.78 18.66 2.81 18.5 2.89 18.32C2.92 18.26 2.98 18.15 3.17 18.02L6.49 15.66C6.69 15.52 6.87 15.42 7.04 15.35C7.26 15.26 7.35 15.17 7.69 15.38C7.89 15.48 8.07 15.63 8.27 15.83L9.03 16.58C9.42 16.96 10.02 17.05 10.48 16.88L10.75 16.76C11.16 16.54 11.64 16.2 12.17 15.75C12.65 15.34 13.17 14.86 13.8 14.24C14.29 13.74 14.78 13.21 15.29 12.62C15.76 12.07 16.1 11.6 16.31 11.21L16.43 10.91C16.49 10.68 16.51 10.55 16.51 10.41C16.51 10.05 16.38 9.73 16.13 9.48L15.38 8.7C15.18 8.5 15.03 8.31 14.93 8.14C14.85 8.01 14.82 7.9 14.82 7.8C14.82 7.72 14.85 7.6 14.9 7.48C14.97 7.32 15.08 7.14 15.22 6.95L17.54 3.67C17.64 3.53 17.76 3.43 17.91 3.36C18.07 3.29 18.24 3.25 18.41 3.25ZM10.05 15.51L10.21 16.19L9.94 15.49C9.99 15.48 10.03 15.49 10.05 15.51Z" fill="white"/>
<path d="M5.5 10.25C5.91 10.25 6.25 9.91 6.25 9.5C6.25 9.14 6.61 8.39 7.21 7.75C7.8 7.12 8.45 6.75 9 6.75C9.41 6.75 9.75 6.41 9.75 6C9.75 5.59 9.41 5.25 9 5.25C8.03 5.25 7.01 5.77 6.12 6.72C5.29 7.61 4.75 8.7 4.75 9.5C4.75 9.91 5.09 10.25 5.5 10.25Z" fill="white"/>
<path d="M2 10.25C2.41 10.25 2.75 9.91 2.75 9.5C2.75 6.05 5.55 3.25 9 3.25C9.41 3.25 9.75 2.91 9.75 2.5C9.75 2.09 9.41 1.75 9 1.75C4.73 1.75 1.25 5.23 1.25 9.5C1.25 9.91 1.59 10.25 2 10.25Z" fill="white"/>
</svg>
