<svg width="24" height="24" viewBox="0 0 24 24" fill="none" xmlns="http://www.w3.org/2000/svg">
<path d="M17.45 22.7502C16.32 22.7502 15.13 22.4802 13.9 21.9602C12.7 21.4502 11.49 20.7502 10.31 19.9002C9.14 19.0402 8.01 18.0802 6.94 17.0302C5.88 15.9602 4.92 14.8302 4.07 13.6702C3.21 12.4702 2.52 11.2702 2.03 10.1102C1.51 8.87017 1.25 7.67017 1.25 6.54017C1.25 5.76017 1.39 5.02017 1.66 4.33017C1.94 3.62017 2.39 2.96017 3 2.39017C3.77 1.63017 4.65 1.25017 5.59 1.25017C5.98 1.25017 6.38 1.34017 6.72 1.50017C7.11 1.68017 7.44 1.95017 7.68 2.31017L10 5.58017C10.21 5.87017 10.37 6.15017 10.48 6.43017C10.61 6.73017 10.68 7.03017 10.68 7.32017C10.68 7.70017 10.57 8.07017 10.36 8.42017C10.21 8.69017 9.98 8.98017 9.69 9.27017L9.01 9.98017C9.02 10.0102 9.03 10.0302 9.04 10.0502C9.16 10.2602 9.4 10.6202 9.86 11.1602C10.35 11.7202 10.81 12.2302 11.27 12.7002C11.86 13.2802 12.35 13.7402 12.81 14.1202C13.38 14.6002 13.75 14.8402 13.97 14.9502L13.95 15.0002L14.68 14.2802C14.99 13.9702 15.29 13.7402 15.58 13.5902C16.13 13.2502 16.83 13.1902 17.53 13.4802C17.79 13.5902 18.07 13.7402 18.37 13.9502L21.69 16.3102C22.06 16.5602 22.33 16.8802 22.49 17.2602C22.64 17.6402 22.71 17.9902 22.71 18.3402C22.71 18.8202 22.6 19.3002 22.39 19.7502C22.18 20.2002 21.92 20.5902 21.59 20.9502C21.02 21.5802 20.4 22.0302 19.68 22.3202C18.99 22.6002 18.24 22.7502 17.45 22.7502ZM5.59 2.75017C5.04 2.75017 4.53 2.99017 4.04 3.47017C3.58 3.90017 3.26 4.37017 3.06 4.88017C2.85 5.40017 2.75 5.95017 2.75 6.54017C2.75 7.47017 2.97 8.48017 3.41 9.52017C3.86 10.5802 4.49 11.6802 5.29 12.7802C6.09 13.8802 7 14.9502 8 15.9602C9 16.9502 10.08 17.8702 11.19 18.6802C12.27 19.4702 13.38 20.1102 14.48 20.5702C16.19 21.3002 17.79 21.4702 19.11 20.9202C19.62 20.7102 20.07 20.3902 20.48 19.9302C20.71 19.6802 20.89 19.4102 21.04 19.0902C21.16 18.8402 21.22 18.5802 21.22 18.3202C21.22 18.1602 21.19 18.0002 21.11 17.8202C21.08 17.7602 21.02 17.6502 20.83 17.5202L17.51 15.1602C17.31 15.0202 17.13 14.9202 16.96 14.8502C16.74 14.7602 16.65 14.6702 16.31 14.8802C16.11 14.9802 15.93 15.1302 15.73 15.3302L14.97 16.0802C14.58 16.4602 13.98 16.5502 13.52 16.3802L13.25 16.2602C12.84 16.0402 12.36 15.7002 11.83 15.2502C11.35 14.8402 10.83 14.3602 10.2 13.7402C9.71 13.2402 9.22 12.7102 8.71 12.1202C8.24 11.5702 7.9 11.1002 7.69 10.7102L7.57 10.4102C7.51 10.1802 7.49 10.0502 7.49 9.91017C7.49 9.55017 7.62 9.23017 7.87 8.98017L8.62 8.20017C8.82 8.00017 8.97 7.81017 9.07 7.64017C9.15 7.51017 9.18 7.40017 9.18 7.30017C9.18 7.22017 9.15 7.10017 9.1 6.98017C9.03 6.82017 8.92 6.64017 8.78 6.45017L6.46 3.17017C6.36 3.03017 6.24 2.93017 6.09 2.86017C5.93 2.79017 5.76 2.75017 5.59 2.75017ZM13.95 15.0102L13.79 15.6902L14.06 14.9902C14.01 14.9802 13.97 14.9902 13.95 15.0102Z" fill="white"/>
<path d="M18.5 9.75017C18.09 9.75017 17.75 9.41017 17.75 9.00017C17.75 8.64017 17.39 7.89017 16.79 7.25017C16.2 6.62017 15.55 6.25017 15 6.25017C14.59 6.25017 14.25 5.91017 14.25 5.50017C14.25 5.09017 14.59 4.75017 15 4.75017C15.97 4.75017 16.99 5.27017 17.88 6.22017C18.71 7.11017 19.25 8.20017 19.25 9.00017C19.25 9.41017 18.91 9.75017 18.5 9.75017Z" fill="white"/>
<path d="M22 9.75017C21.59 9.75017 21.25 9.41017 21.25 9.00017C21.25 5.55017 18.45 2.75017 15 2.75017C14.59 2.75017 14.25 2.41017 14.25 2.00017C14.25 1.59017 14.59 1.25017 15 1.25017C19.27 1.25017 22.75 4.73017 22.75 9.00017C22.75 9.41017 22.41 9.75017 22 9.75017Z" fill="white"/>
</svg>
