<svg width="25" height="25" viewBox="0 0 25 25" fill="none" xmlns="http://www.w3.org/2000/svg">
<path d="M22.3335 23.5901H2.3335C1.9235 23.5901 1.5835 23.2501 1.5835 22.8401C1.5835 22.4301 1.9235 22.0901 2.3335 22.0901H22.3335C22.7435 22.0901 23.0835 22.4301 23.0835 22.8401C23.0835 23.2501 22.7435 23.5901 22.3335 23.5901Z" fill="#353535"/>
<path d="M14.5835 23.5901H10.0835C9.6735 23.5901 9.3335 23.2501 9.3335 22.8401V4.84009C9.3335 3.12009 10.2835 2.09009 11.8835 2.09009H12.7835C14.3835 2.09009 15.3335 3.12009 15.3335 4.84009V22.8401C15.3335 23.2501 14.9935 23.5901 14.5835 23.5901ZM10.8335 22.0901H13.8335V4.84009C13.8335 3.69009 13.2935 3.59009 12.7835 3.59009H11.8835C11.3735 3.59009 10.8335 3.69009 10.8335 4.84009V22.0901Z" fill="#353535"/>
<path d="M7.3335 23.5901H3.3335C2.9235 23.5901 2.5835 23.2501 2.5835 22.8401V10.8401C2.5835 9.12009 3.4635 8.09009 4.9335 8.09009H5.7335C7.2035 8.09009 8.0835 9.12009 8.0835 10.8401V22.8401C8.0835 23.2501 7.7435 23.5901 7.3335 23.5901ZM4.0835 22.0901H6.5835V10.8401C6.5835 9.59009 6.0335 9.59009 5.7335 9.59009H4.9335C4.6335 9.59009 4.0835 9.59009 4.0835 10.8401V22.0901Z" fill="#353535"/>
<path d="M21.3335 23.5901H17.3335C16.9235 23.5901 16.5835 23.2501 16.5835 22.8401V15.8401C16.5835 14.1201 17.4635 13.0901 18.9335 13.0901H19.7335C21.2035 13.0901 22.0835 14.1201 22.0835 15.8401V22.8401C22.0835 23.2501 21.7435 23.5901 21.3335 23.5901ZM18.0835 22.0901H20.5835V15.8401C20.5835 14.5901 20.0335 14.5901 19.7335 14.5901H18.9335C18.6335 14.5901 18.0835 14.5901 18.0835 15.8401V22.0901Z" fill="#353535"/>
</svg>
