<svg width="19" height="19" viewBox="0 0 19 19" fill="none" xmlns="http://www.w3.org/2000/svg">
<path d="M9.07403 17.5626C7.59664 17.5626 6.22824 17.1932 4.96883 16.4545C3.74574 15.7279 2.77091 14.7531 2.04432 13.53C1.30563 12.2706 0.936279 10.9022 0.936279 9.42481C0.936279 7.94742 1.30563 6.57902 2.04432 5.31961C2.77091 4.09652 3.74574 3.12169 4.96883 2.3951C6.22824 1.65641 7.59664 1.28706 9.07403 1.28706C10.5514 1.28706 11.9198 1.65641 13.1792 2.3951C14.4023 3.12169 15.3772 4.09652 16.1037 5.31961C16.8424 6.57902 17.2118 7.94742 17.2118 9.42481C17.2118 10.9022 16.8424 12.2706 16.1037 13.53C15.3772 14.7531 14.4023 15.7279 13.1792 16.4545C11.9198 17.1932 10.5514 17.5626 9.07403 17.5626ZM9.07403 2.43143C7.80251 2.43143 6.62786 2.74628 5.55009 3.37599C4.48444 3.99359 3.64281 4.83522 3.02521 5.90087C2.3955 6.97864 2.08065 8.15329 2.08065 9.42481C2.08065 10.6963 2.3955 11.871 3.02521 12.9487C3.64281 14.0144 4.48444 14.856 5.55009 15.4736C6.62786 16.1033 7.80251 16.4182 9.07403 16.4182C10.3456 16.4182 11.5202 16.1033 12.598 15.4736C13.6636 14.856 14.5053 14.0144 15.1228 12.9487C15.7526 11.871 16.0674 10.6963 16.0674 9.42481C16.0674 8.15329 15.7526 6.97864 15.1228 5.90087C14.5053 4.83522 13.6636 3.99359 12.598 3.37599C11.5202 2.74628 10.3456 2.43143 9.07403 2.43143ZM11.8895 12.4038C11.7806 12.4038 11.6837 12.3735 11.5989 12.313L9.25568 10.9143C8.96504 10.7448 8.72285 10.4905 8.52909 10.1514C8.33534 9.81232 8.23846 9.47325 8.23846 9.13418V6.02803C8.23846 5.8706 8.29295 5.73739 8.40194 5.6284C8.51093 5.51942 8.64413 5.46492 8.80156 5.46492C8.95899 5.46492 9.09219 5.51942 9.20118 5.6284C9.31017 5.73739 9.36466 5.8706 9.36466 6.02803V9.13418C9.36466 9.26738 9.4131 9.41876 9.50998 9.58829C9.60686 9.75783 9.71585 9.87287 9.83694 9.93342L12.1802 11.3321C12.3134 11.4169 12.3982 11.5349 12.4345 11.6863C12.4708 11.8377 12.4526 11.98 12.38 12.1132C12.2589 12.3069 12.0954 12.4038 11.8895 12.4038Z" fill="#383535"/>
</svg>
