<svg width="15" height="15" viewBox="0 0 15 15" fill="none" xmlns="http://www.w3.org/2000/svg">
<g clip-path="url(#clip0_9_2679)">
<path d="M1.18213 1.00586C1.36442 1.00586 1.51937 1.06966 1.64697 1.19727C1.77458 1.32487 1.83838 1.47982 1.83838 1.66211V11.5879C1.83838 11.8887 1.94548 12.1462 2.15967 12.3604C2.37386 12.5745 2.63135 12.6816 2.93213 12.6816H12.8579C13.0402 12.6816 13.1951 12.7454 13.3228 12.873C13.4504 13.0007 13.5142 13.1556 13.5142 13.3379C13.5142 13.5202 13.4504 13.6751 13.3228 13.8027C13.1951 13.9303 13.0402 13.9941 12.8579 13.9941H2.93213C2.26676 13.9941 1.69938 13.7594 1.22998 13.29C0.760579 12.8206 0.525879 12.2533 0.525879 11.5879V1.66211C0.525879 1.47982 0.589681 1.32487 0.717285 1.19727C0.844889 1.06966 0.999837 1.00586 1.18213 1.00586Z" fill="white"/>
</g>
<path d="M12.6938 4.08205C12.8305 4.20054 12.9057 4.35093 12.9194 4.53322C12.933 4.71551 12.8806 4.87501 12.7621 5.01173L10.0824 8.14259C9.73609 8.54363 9.29859 8.75327 8.76994 8.7715C8.2413 8.78973 7.79013 8.61199 7.41643 8.2383L6.85588 7.69142C6.75562 7.58205 6.6303 7.52964 6.4799 7.53419C6.32951 7.53875 6.20875 7.60028 6.1176 7.71876L3.43791 10.8496C3.31942 10.9863 3.16903 11.0615 2.98674 11.0752C2.80445 11.0889 2.64494 11.0365 2.50823 10.918C2.37151 10.7995 2.29631 10.6491 2.28264 10.4668C2.26897 10.2845 2.32138 10.125 2.43987 9.9883L5.11955 6.85744C5.46591 6.46551 5.90341 6.25587 6.43205 6.22853C6.9607 6.20119 7.41187 6.37892 7.78557 6.76173L8.34612 7.30861C8.44638 7.41798 8.5717 7.47039 8.72209 7.46583C8.87248 7.46128 8.99325 7.39975 9.0844 7.28126L11.7778 4.15041C11.8871 4.01369 12.033 3.93849 12.2153 3.92482C12.3975 3.91115 12.5571 3.96356 12.6938 4.08205Z" fill="#00DFFE"/>
<defs>
<clipPath id="clip0_9_2679">
<rect width="14" height="14" fill="white" transform="matrix(1 0 0 -1 0.0200195 14.5)"/>
</clipPath>
</defs>
</svg>
