<svg width="28" height="32" viewBox="0 0 28 32" fill="none" xmlns="http://www.w3.org/2000/svg">
<path d="M13.5342 29.488C12.3111 31.0561 10.6844 31.4604 8.83751 31.3746C7.62663 31.3133 6.40352 31.3624 5.13149 31.3624C5.13149 30.3945 5.13149 29.4635 5.13149 28.4712C2.67304 28.6059 1.64563 26.5968 0.0678196 25.2492C1.2787 24.1956 2.1471 22.8358 3.68822 22.162C3.54145 21.9783 3.41914 21.819 3.28459 21.672C-0.543734 17.1514 -1.06967 10.9158 1.93918 5.80723C2.09818 5.54996 2.15933 5.20694 2.1838 4.90067C2.23272 4.33714 2.17157 3.7491 2.26941 3.19782C2.51404 1.54396 3.70045 0.28213 5.33942 0.0738671C6.5136 -0.0731422 7.72448 0.0493656 8.88643 0.0493656C8.88643 1.32345 9.00874 2.58528 8.84974 3.83486C8.66627 5.3662 7.21077 6.59128 5.65742 6.75054C5.13149 6.79954 4.59332 6.82404 4.06738 6.78729C3.6026 6.76279 3.38244 6.94655 3.17451 7.33858C-0.38473 14.052 3.4069 22.4683 10.7945 24.2324C18.1821 25.9965 25.2638 20.3979 25.2638 12.8024C25.2638 10.83 24.7868 8.96793 23.845 7.22832C23.6738 6.92205 23.4903 6.77504 23.1356 6.79954C22.7076 6.82404 22.2795 6.81179 21.8514 6.79954C19.8577 6.71379 18.3533 5.37845 18.1576 3.40608C18.0475 2.30351 18.1331 1.17644 18.1331 0.0371148C19.3318 0.0371148 20.4937 -0.0608914 21.6312 0.0616163C23.5026 0.26988 24.8969 1.86248 24.8847 3.76135C24.8725 4.85167 25.166 5.78273 25.6308 6.76279C28.077 11.9939 27.5144 16.9309 23.9674 21.5005C23.8084 21.7087 23.6249 21.9048 23.5393 22.015C24.7012 23.0686 25.8509 24.1099 27.074 25.2125C25.4718 26.5968 24.4444 28.6059 21.9859 28.4834C21.9859 29.4635 21.9859 30.37 21.9859 31.3624C21.5334 31.3624 21.1175 31.3624 20.7017 31.3624C19.5397 31.3624 18.3777 31.3746 17.2158 31.3624C15.7114 31.3256 14.5127 30.6763 13.5342 29.488ZM12.5435 26.4008C11.6996 26.4008 10.8801 26.4008 10.0728 26.4008C9.82822 26.4008 9.5836 26.413 9.33898 26.4498C7.85902 26.6458 6.78268 28.0424 7.00284 29.5125C8.03025 29.5125 9.0699 29.5737 10.0973 29.5002C11.6384 29.3777 12.7515 27.9566 12.5435 26.4008ZM14.5127 26.462C14.4149 27.9934 15.3567 29.292 16.8244 29.4635C17.9007 29.586 19.0138 29.488 20.1023 29.488C20.2369 28.0301 19.2706 26.6458 17.8885 26.4865C16.7877 26.364 15.6624 26.462 14.5127 26.462ZM7.08846 1.87473C4.25085 1.48271 3.73714 3.30807 4.11631 4.91292C6.41575 5.19469 7.40647 4.20238 7.08846 1.87473ZM23.0256 4.87617C23.2579 2.49952 22.2672 1.54396 20.0045 1.88698C19.6009 4.11662 20.775 5.2927 23.0256 4.87617ZM7.03954 25.237C5.32718 23.0441 3.76161 23.7669 2.77089 25.286C4.36093 27.1236 5.48619 27.1236 7.03954 25.237ZM20.0412 25.237C21.619 27.3196 23.1968 26.8663 24.3098 25.2247C22.8421 23.3626 21.6801 23.3626 20.0412 25.237Z" fill="white"/>
<path d="M10.2288 10.7812C9.53161 10.7812 8.96898 10.7812 8.35742 10.7812C8.35742 10.181 8.35742 9.61742 8.35742 9.00488C9.54384 9.00488 10.7547 9.00488 12.0145 9.00488C12.0145 12.5576 12.0145 16.1103 12.0145 19.6998C11.4274 19.6998 10.877 19.6998 10.2288 19.6998C10.2288 16.7474 10.2288 13.8072 10.2288 10.7812Z" fill="white"/>
<path d="M16.8714 10.7764C16.1742 10.7764 15.6116 10.7764 15 10.7764C15 10.1761 15 9.61254 15 9C16.1864 9 17.3973 9 18.6571 9C18.6571 12.5527 18.6571 16.1055 18.6571 19.6949C18.07 19.6949 17.5196 19.6949 16.8714 19.6949C16.8714 16.7425 16.8714 13.8023 16.8714 10.7764Z" fill="white"/>
</svg>
