<svg width="39" height="33" viewBox="0 0 39 33" fill="none" xmlns="http://www.w3.org/2000/svg">
<path d="M19.741 32.4669C14.689 32.4669 9.63705 32.4669 4.59993 32.4669C2.07394 32.4669 0.76637 31.1593 0.76637 28.6185C0.76637 26.8652 0.751511 25.097 0.76637 23.3436C0.781228 20.0004 3.18835 17.5933 6.54643 17.5933C8.10659 17.5933 9.65191 17.6973 11.2121 17.7122C11.4052 17.7122 11.6578 17.5339 11.7618 17.3704C12.9505 15.6022 14.585 14.7404 16.7098 14.7404C18.7603 14.7553 20.8108 14.7553 22.8762 14.7404C25.001 14.7256 26.6355 15.6171 27.8242 17.3704C27.9579 17.5636 28.3294 17.6676 28.5968 17.6825C30.469 17.7122 32.3709 17.519 34.2134 17.7419C36.888 18.0688 38.7751 20.4165 38.8048 23.1356C38.8345 25.0673 38.8196 26.9989 38.8048 28.9305C38.7899 31.0702 37.4081 32.4669 35.2684 32.4669C30.0827 32.4818 24.9118 32.4669 19.741 32.4669ZM13.1289 30.1935C17.6162 30.1935 21.9847 30.1935 26.368 30.1935C26.368 26.776 26.4423 23.4179 26.3383 20.0599C26.2789 18.2025 24.8524 17.0287 22.9653 17.0138C20.9297 16.9989 18.9089 16.9989 16.8733 17.0138C14.481 17.0138 13.1437 18.3511 13.1289 20.7285C13.114 22.6304 13.1289 24.5472 13.1289 26.4491C13.1289 27.6675 13.1289 28.9008 13.1289 30.1935ZM10.8555 30.2381C10.8852 30.0449 10.9 29.9558 10.9 29.8518C10.9 26.7314 10.8852 23.6111 10.9149 20.4908C10.9149 19.8964 10.6029 19.837 10.172 19.837C8.86439 19.837 7.54196 19.7924 6.23439 19.8518C4.4662 19.9261 3.08434 21.2188 3.01004 22.9425C2.93575 24.993 2.96547 27.0583 2.99518 29.1088C2.99518 29.7626 3.36665 30.2232 4.05015 30.2232C6.29383 30.253 8.5375 30.2381 10.8555 30.2381ZM28.6563 30.2381C31.0188 30.2381 33.2625 30.253 35.521 30.2232C36.1748 30.2084 36.5611 29.7478 36.576 29.0197C36.5908 27.0435 36.6057 25.0524 36.5611 23.0762C36.5165 21.3526 35.2535 19.9856 33.5448 19.8667C32.1183 19.7627 30.677 19.837 29.2357 19.837C28.8048 19.837 28.6414 20.0301 28.6563 20.4759C28.686 21.62 28.6711 22.7493 28.6711 23.8934C28.6563 25.9885 28.6563 28.0687 28.6563 30.2381Z" fill="white"/>
<path d="M26.3833 7.65255C26.2941 11.3524 23.2778 14.2647 19.6077 14.1755C16.0119 14.0864 13.0847 11.0403 13.1739 7.45939C13.2482 3.71498 16.2496 0.8621 20.0237 0.951252C23.5601 1.0404 26.4576 4.08645 26.3833 7.65255ZM24.1545 7.5634C24.1545 5.12656 22.208 3.18007 19.7711 3.18007C17.364 3.18007 15.4324 5.09684 15.4027 7.50396C15.373 9.92594 17.3343 11.917 19.7563 11.9319C22.1634 11.9616 24.1396 9.98538 24.1545 7.5634Z" fill="white"/>
<path d="M3.24805 12.0357C3.24805 9.30165 5.49172 7.05798 8.21087 7.08769C10.9449 7.10255 13.144 9.34623 13.1143 12.0951C13.0994 14.7994 10.8854 16.9985 8.18115 16.9985C5.462 16.9985 3.24805 14.7697 3.24805 12.0357ZM10.8854 12.0951C10.9152 10.5646 9.72646 9.33137 8.21087 9.31651C6.75471 9.30165 5.50658 10.5052 5.49172 11.9762C5.462 13.5067 6.66556 14.74 8.1663 14.7548C9.63731 14.7697 10.8557 13.581 10.8854 12.0951Z" fill="white"/>
<path d="M26.4278 12.0062C26.4427 9.27214 28.7012 7.04333 31.4203 7.07305C34.1544 7.11762 36.3386 9.34644 36.3089 12.0953C36.2643 14.8145 34.0503 16.9987 31.3461 16.9987C28.612 16.9838 26.413 14.755 26.4278 12.0062ZM34.0652 12.0359C34.0652 10.55 32.8765 9.34644 31.4055 9.31672C29.9048 9.287 28.6715 10.5351 28.6715 12.0359C28.6715 13.5217 29.8602 14.7253 31.3312 14.755C32.8319 14.7847 34.0652 13.5515 34.0652 12.0359Z" fill="white"/>
</svg>
