<svg width="16" height="16" viewBox="0 0 16 16" fill="none" xmlns="http://www.w3.org/2000/svg">
<g clip-path="url(#clip0_575_6222)">
<path d="M14.5469 4.35938H13.8125V13.8125C13.8125 14.1042 13.75 14.3776 13.625 14.6328C13.5 14.888 13.3438 15.125 13.1562 15.3438C12.9792 15.5625 12.7552 15.7266 12.4844 15.8359C12.2135 15.9453 11.9323 16 11.6406 16H4.35938C4.06771 16 3.79688 15.9453 3.54688 15.8359C3.29688 15.7266 3.0625 15.5625 2.84375 15.3438C2.625 15.1667 2.46094 14.9401 2.35156 14.6641C2.24219 14.388 2.1875 14.1042 2.1875 13.8125V4.35938H1.45312C1.23438 4.35938 1.0599 4.28385 0.929688 4.13281C0.799479 3.98177 0.734375 3.81771 0.734375 3.64062C0.734375 3.45312 0.799479 3.28385 0.929688 3.13281C1.0599 2.98177 1.23438 2.90625 1.45312 2.90625H4.35938V2.1875C4.35938 1.89583 4.41406 1.6224 4.52344 1.36719C4.63281 1.11198 4.79688 0.875 5.01562 0.65625C5.20312 0.4375 5.43229 0.273438 5.70312 0.164062C5.97396 0.0546875 6.25521 0 6.54688 0H9.45312C9.74479 0 10.0182 0.0546875 10.2734 0.164062C10.5286 0.273438 10.7656 0.4375 10.9844 0.65625C11.2031 0.833333 11.3672 1.0599 11.4766 1.33594C11.5859 1.61198 11.6406 1.89583 11.6406 2.1875V2.90625H14.5469C14.7656 2.90625 14.9401 2.98177 15.0703 3.13281C15.2005 3.28385 15.2656 3.45312 15.2656 3.64062C15.2656 3.81771 15.2005 3.98177 15.0703 4.13281C14.9401 4.28385 14.7656 4.35938 14.5469 4.35938ZM10.1875 2.1875C10.1875 2.07292 10.1693 1.97656 10.1328 1.89844C10.0964 1.82031 10.0417 1.74479 9.96875 1.67188C9.89583 1.59896 9.82031 1.54427 9.74219 1.50781C9.66406 1.47135 9.56771 1.45312 9.45312 1.45312H6.54688C6.43229 1.45312 6.33594 1.47135 6.25781 1.50781C6.17969 1.54427 6.10417 1.59896 6.03125 1.67188C5.95833 1.74479 5.90365 1.82031 5.86719 1.89844C5.83073 1.97656 5.8125 2.07292 5.8125 2.1875V2.90625H10.1875V2.1875ZM3.64062 4.35938V13.8125C3.64062 13.9271 3.65885 14.0234 3.69531 14.1016C3.73177 14.1797 3.78646 14.2552 3.85938 14.3281C3.93229 14.401 4.00781 14.4557 4.08594 14.4922C4.16406 14.5286 4.25521 14.5469 4.35938 14.5469H11.6406C11.7448 14.5469 11.8359 14.5286 11.9141 14.4922C11.9922 14.4557 12.0677 14.401 12.1406 14.3281C12.2135 14.2552 12.2682 14.1797 12.3047 14.1016C12.3411 14.0234 12.3594 13.9271 12.3594 13.8125V4.35938H3.64062Z" fill="#DA3838"/>
</g>
<defs>
<clipPath id="clip0_575_6222">
<rect width="16" height="16" fill="white" transform="matrix(1 0 0 -1 0 16)"/>
</clipPath>
</defs>
</svg>
