<svg width="15" height="20" viewBox="0 0 15 20" fill="none" xmlns="http://www.w3.org/2000/svg">
<g clip-path="url(#clip0_575_6333)">
<path d="M9.73682 1.12207C10.4295 1.12207 11.048 1.22721 11.5923 1.4375C12.1366 1.63542 12.6004 1.9292 12.9839 2.31885C13.3674 2.7085 13.658 3.18164 13.856 3.73828C14.0662 4.28255 14.1714 4.90723 14.1714 5.6123V13.9619C14.159 14.6546 14.0539 15.2731 13.856 15.8174C13.6457 16.374 13.3488 16.841 12.9653 17.2183C12.5819 17.5955 12.118 17.8831 11.5737 18.0811C11.0295 18.2913 10.4172 18.3965 9.73682 18.3965H4.78271C4.16423 18.3965 3.6014 18.3099 3.09424 18.1367C2.58708 17.9759 2.14795 17.7409 1.77686 17.4316C1.40576 17.1224 1.1027 16.7389 0.867676 16.2812C0.63265 15.8236 0.478027 15.304 0.403809 14.7227C0.391439 14.599 0.379069 14.4691 0.366699 14.333C0.354329 14.1969 0.348145 14.0547 0.348145 13.9062C0.348145 13.9062 0.348145 13.9032 0.348145 13.897C0.348145 13.8908 0.348145 13.8877 0.348145 13.8877V5.6123C0.348145 5.58757 0.348145 5.55973 0.348145 5.52881C0.348145 5.49788 0.348145 5.46387 0.348145 5.42676C0.348145 4.9196 0.422363 4.43099 0.570801 3.96094C0.719238 3.49089 0.929525 3.06413 1.20166 2.68066V2.69922C1.48617 2.31576 1.83252 1.99723 2.24072 1.74365C2.64893 1.49007 3.08805 1.31999 3.55811 1.2334H3.59521L3.78076 1.19629C3.9292 1.17155 4.08691 1.15299 4.25391 1.14062C4.4209 1.12826 4.59098 1.12207 4.76416 1.12207C4.76416 1.12207 4.76725 1.12207 4.77344 1.12207C4.77962 1.12207 4.78271 1.12207 4.78271 1.12207H9.73682ZM4.78271 17.1348H9.71826C10.7821 17.1348 11.5799 16.8626 12.1118 16.3184C12.6437 15.7741 12.9097 14.9639 12.9097 13.8877V5.6123C12.9097 4.5485 12.6437 3.74447 12.1118 3.2002C11.5799 2.65592 10.7821 2.38379 9.71826 2.38379H4.78271C3.71891 2.38379 2.92106 2.65592 2.38916 3.2002C1.85726 3.74447 1.59131 4.5485 1.59131 5.6123V13.8877C1.59131 14.9639 1.85726 15.7741 2.38916 16.3184C2.92106 16.8626 3.71891 17.1348 4.78271 17.1348ZM8.40088 13.6465C8.56169 13.6589 8.69466 13.7269 8.7998 13.8506C8.90495 13.9743 8.95752 14.1165 8.95752 14.2773C8.95752 14.4382 8.90495 14.5773 8.7998 14.6948C8.69466 14.8123 8.56169 14.8835 8.40088 14.9082H6.02588C5.86507 14.8835 5.7321 14.8123 5.62695 14.6948C5.52181 14.5773 5.46924 14.4382 5.46924 14.2773C5.46924 14.1165 5.52181 13.9743 5.62695 13.8506C5.7321 13.7269 5.86507 13.6589 6.02588 13.6465H8.40088Z" fill="#C7D0DE"/>
</g>
<defs>
<clipPath id="clip0_575_6333">
<rect width="14.02" height="19" fill="white" transform="matrix(1 0 0 -1 0.25 19.25)"/>
</clipPath>
</defs>
</svg>
