<svg width="14" height="13" viewBox="0 0 14 13" fill="none" xmlns="http://www.w3.org/2000/svg">
<g clip-path="url(#clip0_572_4336)">
<path d="M10.0078 6.5L12.0586 4.4375C12.2852 4.21875 12.457 3.96484 12.5742 3.67578C12.6836 3.39453 12.7383 3.10547 12.7383 2.80859C12.7383 2.51172 12.6836 2.22266 12.5742 1.94141C12.457 1.66016 12.2852 1.40625 12.0586 1.17969C11.8398 0.953125 11.5859 0.785156 11.2969 0.675781C11.0156 0.558594 10.7266 0.5 10.4297 0.5C10.1328 0.5 9.84375 0.558594 9.5625 0.675781C9.28125 0.785156 9.02734 0.953125 8.80078 1.17969L6.75 3.23047L4.6875 1.17969C4.46094 0.953125 4.20703 0.78125 3.92578 0.664062C3.64453 0.554688 3.35547 0.5 3.05859 0.5C2.76172 0.5 2.47266 0.554688 2.19141 0.664062C1.91016 0.78125 1.65625 0.953125 1.42969 1.17969C1.20312 1.40625 1.03125 1.66016 0.914062 1.94141C0.804688 2.22266 0.75 2.51172 0.75 2.80859C0.75 3.10547 0.804688 3.39453 0.914062 3.67578C1.03125 3.95703 1.20312 4.21094 1.42969 4.4375L3.48047 6.5L1.42969 8.55078C1.20312 8.77734 1.03516 9.03125 0.925781 9.3125C0.808594 9.59375 0.75 9.88281 0.75 10.1797C0.75 10.4766 0.808594 10.7656 0.925781 11.0469C1.03516 11.3359 1.20312 11.5898 1.42969 11.8086C1.65625 12.0352 1.91016 12.2051 2.19141 12.3184C2.47266 12.4316 2.76172 12.4883 3.05859 12.4883C3.35547 12.4883 3.64648 12.4316 3.93164 12.3184C4.2168 12.2051 4.46875 12.0352 4.6875 11.8086L6.75 9.75781L8.8125 11.8203C9.03906 12.0469 9.29297 12.2168 9.57422 12.3301C9.85547 12.4434 10.1445 12.5 10.4414 12.5C10.7383 12.5 11.0273 12.4434 11.3086 12.3301C11.5898 12.2168 11.8438 12.0469 12.0703 11.8203C12.2969 11.5938 12.4688 11.3398 12.5859 11.0586C12.6953 10.7773 12.75 10.4883 12.75 10.1914C12.75 9.89453 12.6953 9.60547 12.5859 9.32422C12.4688 9.04297 12.2969 8.78906 12.0703 8.5625L10.0078 6.5Z" fill="#F03D3D"/>
</g>
<defs>
<clipPath id="clip0_572_4336">
<rect width="13.5" height="12" fill="white" transform="matrix(1 0 0 -1 0 12.5)"/>
</clipPath>
</defs>
</svg>
