<svg width="15" height="20" viewBox="0 0 15 20" fill="none" xmlns="http://www.w3.org/2000/svg">
<g clip-path="url(#clip0_575_6327)">
<path d="M6.11865 18.3408H5.87744H5.74756C5.68571 18.3408 5.62386 18.3346 5.56201 18.3223C5.50016 18.3099 5.4445 18.2975 5.39502 18.2852V18.3037C5.02393 18.279 4.6652 18.2388 4.31885 18.1831C3.97249 18.1274 3.63232 18.0625 3.29834 17.9883L3.39111 18.0068L3.16846 17.9512C2.61182 17.8893 2.11084 17.7131 1.66553 17.4224C1.22021 17.1317 0.867676 16.7699 0.60791 16.3369L0.589355 16.3184C0.515137 16.1576 0.45638 15.9844 0.413086 15.7988C0.369792 15.6133 0.348145 15.4215 0.348145 15.2236C0.348145 15.0257 0.369792 14.834 0.413086 14.6484C0.45638 14.4629 0.521322 14.2897 0.60791 14.1289L0.589355 14.1475C0.8986 13.6774 1.29134 13.2939 1.76758 12.9971C2.24382 12.7002 2.76644 12.5208 3.33545 12.459H3.354C3.68799 12.3848 4.02507 12.326 4.36523 12.2827C4.7054 12.2394 5.04248 12.2054 5.37646 12.1807C5.66097 12.1559 5.96403 12.1343 6.28564 12.1157C6.60726 12.0972 6.92887 12.0879 7.25049 12.0879C7.58447 12.0879 7.91536 12.0972 8.24316 12.1157C8.57096 12.1343 8.89567 12.1559 9.21729 12.1807H9.12451L9.53271 12.1992C9.80485 12.2363 10.0739 12.2734 10.3398 12.3105C10.6058 12.3477 10.8748 12.3971 11.147 12.459C11.8892 12.6074 12.486 12.8208 12.9375 13.0991C13.389 13.3774 13.7137 13.7269 13.9116 14.1475C13.9982 14.3083 14.0601 14.4814 14.0972 14.667C14.1343 14.8525 14.1528 15.0381 14.1528 15.2236C14.1528 15.4215 14.1312 15.6133 14.0879 15.7988C14.0446 15.9844 13.9858 16.1576 13.9116 16.3184C13.7137 16.7389 13.3859 17.0884 12.9282 17.3667C12.4705 17.645 11.8768 17.8522 11.147 17.9883L10.7573 18.0811C10.4852 18.1305 10.2131 18.1738 9.94092 18.2109C9.66878 18.248 9.39665 18.2728 9.12451 18.2852C8.85238 18.3099 8.55859 18.3315 8.24316 18.3501C7.92773 18.3687 7.60303 18.3779 7.26904 18.3779C7.07113 18.3779 6.87012 18.3748 6.66602 18.3687C6.46191 18.3625 6.2609 18.3532 6.06299 18.3408H6.11865ZM5.48779 13.4238C5.14144 13.4486 4.80745 13.4826 4.48584 13.5259C4.16423 13.5692 3.84261 13.6279 3.521 13.7021L3.61377 13.6836C3.23031 13.7207 2.87467 13.8258 2.54688 13.999C2.21908 14.1722 1.94385 14.401 1.72119 14.6855C1.67171 14.7721 1.6377 14.8618 1.61914 14.9546C1.60059 15.0474 1.59131 15.137 1.59131 15.2236C1.59131 15.3226 1.60059 15.4185 1.61914 15.5112C1.6377 15.604 1.67171 15.6875 1.72119 15.7617C1.83252 15.9967 2.04899 16.1978 2.37061 16.3647C2.69222 16.5317 3.11279 16.6709 3.63232 16.7822L3.94775 16.8379C4.20752 16.8874 4.47347 16.9307 4.74561 16.9678C5.01774 17.0049 5.28988 17.0358 5.56201 17.0605C5.59912 17.0605 5.63932 17.0636 5.68262 17.0698C5.72591 17.076 5.76611 17.0791 5.80322 17.0791L6.15576 17.0977C6.31657 17.0977 6.49284 17.1007 6.68457 17.1069C6.8763 17.1131 7.07113 17.1162 7.26904 17.1162C7.57829 17.1162 7.88753 17.11 8.19678 17.0977C8.50602 17.0853 8.81527 17.0667 9.12451 17.042H9.03174C9.37809 17.0173 9.71208 16.9801 10.0337 16.9307C10.3553 16.8812 10.6707 16.8255 10.98 16.7637L10.9058 16.7822L11.0913 16.7266C11.549 16.6276 11.9232 16.4977 12.2139 16.3369C12.5046 16.1761 12.6994 15.9906 12.7983 15.7803C12.8354 15.6937 12.8664 15.604 12.8911 15.5112C12.9159 15.4185 12.9282 15.3226 12.9282 15.2236C12.9282 15.1247 12.9159 15.0288 12.8911 14.936C12.8664 14.8433 12.8354 14.7598 12.7983 14.6855C12.6994 14.4629 12.486 14.265 12.1582 14.0918C11.8304 13.9186 11.4067 13.7826 10.8872 13.6836C10.6274 13.6217 10.3429 13.5692 10.0337 13.5259C9.72445 13.4826 9.40902 13.4486 9.0874 13.4238H9.03174C8.7596 13.3991 8.4751 13.3805 8.17822 13.3682C7.88135 13.3558 7.57829 13.3496 7.26904 13.3496C6.97217 13.3496 6.67529 13.3558 6.37842 13.3682C6.08154 13.3805 5.78467 13.3991 5.48779 13.4238ZM2.66748 5.70508C2.67985 5.07422 2.80355 4.48047 3.03857 3.92383C3.28597 3.37956 3.61686 2.90023 4.03125 2.48584C4.44564 2.07145 4.93115 1.74056 5.48779 1.49316C6.03206 1.25814 6.62581 1.14062 7.26904 1.14062C7.8999 1.14062 8.49365 1.25814 9.05029 1.49316C9.60693 1.74056 10.0924 2.07145 10.5068 2.48584C10.9212 2.90023 11.2459 3.38574 11.481 3.94238C11.7284 4.49902 11.8521 5.09277 11.8521 5.72363C11.8521 6.35449 11.7284 6.94824 11.481 7.50488C11.2459 8.07389 10.9212 8.56559 10.5068 8.97998C10.0924 9.39437 9.60693 9.71908 9.05029 9.9541C8.49365 10.1891 7.8999 10.3066 7.26904 10.3066C7.25667 10.3066 7.25049 10.3066 7.25049 10.3066C6.61963 10.3066 6.02588 10.1891 5.46924 9.9541C4.9126 9.70671 4.42708 9.37581 4.0127 8.96143C3.59831 8.54704 3.2736 8.06152 3.03857 7.50488C2.79118 6.94824 2.66748 6.34831 2.66748 5.70508ZM3.91064 5.70508C3.92301 6.63281 4.25391 7.42139 4.90332 8.0708C5.55273 8.72021 6.34131 9.04492 7.26904 9.04492C8.18441 9.04492 8.96989 8.71712 9.62549 8.06152C10.2811 7.40592 10.6089 6.61426 10.6089 5.68652C10.6089 4.77116 10.2811 3.98568 9.62549 3.33008C8.96989 2.67448 8.18441 2.34668 7.26904 2.34668C7.25667 2.34668 7.25049 2.34668 7.25049 2.34668C6.33512 2.35905 5.54964 2.68994 4.89404 3.33936C4.23844 3.98877 3.91064 4.77734 3.91064 5.70508Z" fill="#C7D0DE"/>
</g>
<defs>
<clipPath id="clip0_575_6327">
<rect width="14.02" height="19" fill="white" transform="matrix(1 0 0 -1 0.25 19.25)"/>
</clipPath>
</defs>
</svg>
