<svg width="18" height="15" viewBox="0 0 18 15" fill="none" xmlns="http://www.w3.org/2000/svg">
<path d="M15.038 0.776367C15.4577 1.16699 15.6748 1.65039 15.6895 2.22656C15.7041 2.80273 15.5162 3.30078 15.1258 3.7207L5.40502 14.0918C5.20983 14.2871 4.98291 14.4458 4.72427 14.5679C4.46564 14.6899 4.18504 14.751 3.88249 14.751C3.30666 14.751 2.81623 14.5459 2.41119 14.1357C2.00616 13.7256 1.80364 13.2324 1.80364 12.6562C1.80364 12.3828 1.85488 12.124 1.95736 11.8799C2.05984 11.6357 2.19404 11.4209 2.35995 11.2354L12.0954 0.878906C12.2808 0.673828 12.5053 0.512695 12.7688 0.395508C13.0323 0.27832 13.3105 0.219727 13.6033 0.219727C13.8863 0.219727 14.1498 0.268555 14.3938 0.366211C14.6378 0.463867 14.8525 0.600586 15.038 0.776367ZM3.78001 0.527344C4.37536 0.537109 4.87799 0.751953 5.2879 1.17188C5.69782 1.5918 5.90277 2.09473 5.90277 2.68066C5.90277 3.25684 5.71246 3.75 5.33182 4.16016C4.95119 4.57031 4.48272 4.7998 3.92641 4.84863C3.91665 4.84863 3.90445 4.84863 3.88981 4.84863C3.87517 4.84863 3.86297 4.84863 3.85321 4.84863C3.25786 4.84863 2.74791 4.63623 2.32335 4.21143C1.8988 3.78662 1.68652 3.27637 1.68652 2.68066C1.68652 2.09473 1.89148 1.59424 2.30139 1.1792C2.71131 0.76416 3.20418 0.546875 3.78001 0.527344ZM13.9693 10.0928C13.9888 10.0928 14.0034 10.0928 14.0132 10.0928C14.023 10.0928 14.0327 10.0928 14.0425 10.0928C14.6378 10.0928 15.1478 10.3052 15.5723 10.73C15.9969 11.1548 16.2092 11.665 16.2092 12.2607C16.2092 12.8467 16.0066 13.3496 15.6016 13.7695C15.1966 14.1895 14.7013 14.4092 14.1157 14.4287C14.1059 14.4287 14.0937 14.4287 14.0791 14.4287C14.0644 14.4287 14.0522 14.4287 14.0425 14.4287C13.4471 14.4287 12.9372 14.2163 12.5126 13.7915C12.0881 13.3667 11.8758 12.8564 11.8758 12.2607C11.8758 11.6748 12.0808 11.1719 12.4907 10.752C12.9006 10.332 13.3935 10.1123 13.9693 10.0928Z" fill="#EA9117"/>
</svg>
