<svg width="10" height="10" viewBox="0 0 10 10" fill="none" xmlns="http://www.w3.org/2000/svg">
<g clip-path="url(#clip0_575_6213)">
<path d="M3.90747 8.08496L3.8987 7.94434V6.09863H2.01135C1.70704 6.09863 1.44808 5.9917 1.23447 5.77783C1.02087 5.56396 0.914062 5.30469 0.914062 5C0.914062 4.72461 1.00477 4.48438 1.18619 4.2793C1.36761 4.07422 1.59292 3.9541 1.86212 3.91895L2.01135 3.91016H3.8987V2.07324C3.8987 1.76855 4.00696 1.50928 4.22349 1.29541C4.44003 1.08154 4.69752 0.974609 4.99599 0.974609C5.27104 0.974609 5.51098 1.06543 5.71581 1.24707C5.92064 1.42871 6.04353 1.6543 6.0845 1.92383L6.09328 2.07324V3.91016H7.9894C8.29371 3.91016 8.55267 4.01709 8.76628 4.23096C8.97989 4.44482 9.08669 4.7041 9.08669 5.00879C9.08669 5.28418 8.99598 5.52441 8.81456 5.72949C8.63314 5.93457 8.40783 6.05469 8.13863 6.08984L7.9894 6.09863H6.09328V7.93555C6.08743 8.24023 5.97623 8.49805 5.7597 8.70898C5.54317 8.91992 5.28275 9.02539 4.97843 9.02539C4.70923 9.01953 4.47368 8.92871 4.27177 8.75293C4.06987 8.57715 3.94844 8.35449 3.90747 8.08496Z" fill="#0B49DC"/>
</g>
<defs>
<clipPath id="clip0_575_6213">
<rect width="8.18" height="9" fill="white" transform="matrix(1 0 0 -1 0.910156 9.5)"/>
</clipPath>
</defs>
</svg>
