<svg width="9" height="7" viewBox="0 0 9 7" fill="none" xmlns="http://www.w3.org/2000/svg">
<g clip-path="url(#clip0_575_6189)">
<path d="M5.14648 6.51553C5.16211 6.4999 5.20117 6.46377 5.26367 6.40713C5.32617 6.35049 5.38867 6.29287 5.45117 6.23428C5.69727 5.98037 5.93164 5.7167 6.1543 5.44326C6.37695 5.17373 6.58887 4.89346 6.79004 4.60244C6.99121 4.31143 7.17969 4.01357 7.35547 3.70889C7.53516 3.4042 7.69922 3.0917 7.84766 2.77139C7.89844 2.66201 7.94043 2.54873 7.97363 2.43154C8.00684 2.31436 8.0332 2.19522 8.05273 2.07412C8.05273 1.98037 8.04102 1.8876 8.01758 1.7958C7.99414 1.704 7.96094 1.61709 7.91797 1.53506C7.85938 1.42959 7.7832 1.33682 7.68945 1.25674C7.5957 1.17666 7.49219 1.11318 7.37891 1.06631C7.27734 1.03506 7.17285 1.00674 7.06543 0.981348C6.95801 0.955957 6.85156 0.931543 6.74609 0.908106C6.55859 0.884668 6.36914 0.863184 6.17773 0.843653C5.99023 0.824121 5.80176 0.80752 5.6123 0.793848C5.42285 0.780176 5.23242 0.771387 5.04102 0.767481C4.85352 0.763575 4.66406 0.763575 4.47266 0.767481C4.28906 0.763575 4.10547 0.765528 3.92188 0.77334C3.73828 0.777246 3.55469 0.784082 3.37109 0.793848C3.1875 0.803614 3.00391 0.818262 2.82031 0.837793C2.63672 0.853418 2.45508 0.87295 2.27539 0.896387C2.13867 0.919825 2.00391 0.948145 1.87109 0.981348C1.73828 1.01455 1.60742 1.05264 1.47852 1.09561C1.30273 1.18545 1.16113 1.31533 1.05371 1.48525C0.946289 1.65518 0.890625 1.83975 0.886719 2.03897V2.07412C0.910156 2.21084 0.942383 2.34463 0.983398 2.47549C1.02441 2.60635 1.07422 2.73428 1.13281 2.85928C1.28516 3.17178 1.44727 3.47842 1.61914 3.7792C1.79492 4.07607 1.98242 4.36611 2.18164 4.64932C2.38086 4.93252 2.58984 5.20693 2.80859 5.47256C3.02734 5.73818 3.25781 5.996 3.5 6.246C3.55078 6.29678 3.60449 6.34561 3.66113 6.39248C3.71777 6.43936 3.77344 6.48623 3.82812 6.53311C3.92188 6.59951 4.02344 6.65029 4.13281 6.68545C4.24219 6.72061 4.35352 6.73623 4.4668 6.73232C4.58789 6.73623 4.70703 6.71865 4.82422 6.67959C4.94141 6.64053 5.04883 6.58584 5.14648 6.51553Z" fill="#F23248"/>
</g>
<defs>
<clipPath id="clip0_575_6189">
<rect width="8" height="6" fill="white" transform="matrix(1 0 0 -1 0.469727 6.75)"/>
</clipPath>
</defs>
</svg>
