<svg width="14" height="14" viewBox="0 0 14 14" fill="none" xmlns="http://www.w3.org/2000/svg">
<g clip-path="url(#clip0_223_3668)">
<path d="M7.09302 5.14164L8.87473 6.89379L8.88322 6.80201C8.88322 5.88143 8.12246 5.1333 7.18635 5.1333L7.09302 5.14164Z" fill="black"/>
<path d="M7.18635 4.02071C8.74747 4.02071 10.0145 5.26669 10.0145 6.80191C10.0145 7.16068 9.94095 7.50276 9.81368 7.81703L11.4681 9.44402C12.3222 8.74316 12.9953 7.83651 13.411 6.80191C12.4297 4.36003 10.0173 2.63013 7.18637 2.63013C6.39449 2.63013 5.63657 2.76918 4.93237 3.01948L6.15412 4.21817C6.47366 4.0958 6.82152 4.02071 7.18635 4.02071Z" fill="black"/>
<path d="M1.53021 2.5051L2.81983 3.77332L3.0772 4.02642C2.14392 4.74396 1.40579 5.69792 0.9646 6.80203C1.94314 9.24391 4.35834 10.9738 7.18646 10.9738C8.06319 10.9738 8.9003 10.8069 9.66673 10.5038L9.90713 10.7402L11.5559 12.3644L12.2771 11.658L2.25138 1.7959L1.53021 2.5051ZM4.65813 5.57832L5.53201 6.43771C5.50656 6.55731 5.48959 6.67688 5.48959 6.80203C5.48959 7.72261 6.25035 8.47075 7.18646 8.47075C7.31373 8.47075 7.43534 8.45406 7.55412 8.42903L8.42801 9.28841C8.05186 9.47197 7.63332 9.58323 7.18646 9.58323C5.62534 9.58323 4.35834 8.33725 4.35834 6.80203C4.35834 6.36261 4.47147 5.95099 4.65813 5.57832Z" fill="black"/>
</g>
<defs>
<clipPath id="clip0_223_3668">
<rect width="12.4465" height="12.24" fill="white" transform="translate(0.9646 0.959961)"/>
</clipPath>
</defs>
</svg>
