<svg width="24" height="24" viewBox="0 0 24 24" fill="none" xmlns="http://www.w3.org/2000/svg">
<path d="M15.65 21.4099C15.22 21.4099 14.79 21.3199 14.44 21.1499L9.19004 18.5199C8.89004 18.3699 8.30004 18.3799 8.01004 18.5499L5.65004 19.8999C4.63004 20.4799 3.58004 20.5599 2.79004 20.0899C1.99004 19.6299 1.54004 18.6899 1.54004 17.5099V7.78991C1.54004 6.87991 2.14004 5.84991 2.93004 5.39991L7.26004 2.91991C7.99004 2.49991 9.10004 2.46991 9.85004 2.84991L15.1 5.47991C15.4 5.62991 15.98 5.60991 16.28 5.44991L18.63 4.10991C19.65 3.52991 20.7 3.44991 21.49 3.91991C22.29 4.37991 22.74 5.31991 22.74 6.49991V16.2299C22.74 17.1399 22.14 18.1699 21.35 18.6199L17.02 21.0999C16.64 21.2999 16.14 21.4099 15.65 21.4099ZM8.64004 16.9199C9.07004 16.9199 9.50004 17.0099 9.85004 17.1799L15.1 19.8099C15.4 19.9599 15.98 19.9399 16.28 19.7799L20.61 17.2999C20.93 17.1199 21.24 16.5799 21.24 16.2199V6.48991C21.24 5.85991 21.06 5.38991 20.73 5.20991C20.41 5.02991 19.91 5.09991 19.37 5.40991L17.02 6.74991C16.29 7.16991 15.18 7.19991 14.43 6.81991L9.18004 4.18991C8.88004 4.03991 8.30004 4.05991 8.00004 4.21991L3.67004 6.69991C3.35004 6.87991 3.04004 7.41991 3.04004 7.78991V17.5199C3.04004 18.1499 3.22004 18.6199 3.54004 18.7999C3.86004 18.9899 4.36004 18.9099 4.91004 18.5999L7.26004 17.2599C7.65004 17.0299 8.15004 16.9199 8.64004 16.9199Z" fill="#8A8A8A"/>
<path d="M8.55957 17.75C8.14957 17.75 7.80957 17.41 7.80957 17V4C7.80957 3.59 8.14957 3.25 8.55957 3.25C8.96957 3.25 9.30957 3.59 9.30957 4V17C9.30957 17.41 8.96957 17.75 8.55957 17.75Z" fill="#8A8A8A"/>
<path d="M15.7305 20.7501C15.3205 20.7501 14.9805 20.4101 14.9805 20.0001V6.62012C14.9805 6.21012 15.3205 5.87012 15.7305 5.87012C16.1405 5.87012 16.4805 6.21012 16.4805 6.62012V20.0001C16.4805 20.4101 16.1405 20.7501 15.7305 20.7501Z" fill="#8A8A8A"/>
</svg>
