<svg width="27" height="28" viewBox="0 0 27 28" fill="none" xmlns="http://www.w3.org/2000/svg">
<path d="M23.6451 9.03355H3.51596C3.05746 9.03355 2.67725 8.65334 2.67725 8.19484C2.67725 7.73634 3.05746 7.35612 3.51596 7.35612H23.6451C24.1036 7.35612 24.4838 7.73634 24.4838 8.19484C24.4838 8.65334 24.1036 9.03355 23.6451 9.03355Z" fill="#353535"/>
<path d="M23.6451 14.625H3.51596C3.05746 14.625 2.67725 14.2448 2.67725 13.7863C2.67725 13.3278 3.05746 12.9475 3.51596 12.9475H23.6451C24.1036 12.9475 24.4838 13.3278 24.4838 13.7863C24.4838 14.2448 24.1036 14.625 23.6451 14.625Z" fill="#353535"/>
<path d="M23.6451 20.2164H3.51596C3.05746 20.2164 2.67725 19.8362 2.67725 19.3777C2.67725 18.9192 3.05746 18.539 3.51596 18.539H23.6451C24.1036 18.539 24.4838 18.9192 24.4838 19.3777C24.4838 19.8362 24.1036 20.2164 23.6451 20.2164Z" fill="#353535"/>
</svg>
