<svg width="25" height="25" viewBox="0 0 25 25" fill="none" xmlns="http://www.w3.org/2000/svg">
<path d="M11.5 21.25C6.12 21.25 1.75 16.88 1.75 11.5C1.75 6.12 6.12 1.75 11.5 1.75C16.88 1.75 21.25 6.12 21.25 11.5C21.25 16.88 16.88 21.25 11.5 21.25ZM11.5 3.25C6.95 3.25 3.25 6.95 3.25 11.5C3.25 16.05 6.95 19.75 11.5 19.75C16.05 19.75 19.75 16.05 19.75 11.5C19.75 6.95 16.05 3.25 11.5 3.25Z" fill="white"/>
<path d="M20.6601 23.29C20.5801 23.29 20.5001 23.28 20.4301 23.27C19.9601 23.21 19.1101 22.89 18.6301 21.46C18.3801 20.71 18.4701 19.96 18.8801 19.39C19.2901 18.82 19.9801 18.5 20.7701 18.5C21.7901 18.5 22.5901 18.89 22.9501 19.58C23.3101 20.27 23.2101 21.15 22.6401 22C21.9301 23.07 21.1601 23.29 20.6601 23.29ZM20.0601 20.99C20.2301 21.51 20.4701 21.77 20.6301 21.79C20.7901 21.81 21.0901 21.62 21.4001 21.17C21.6901 20.74 21.7101 20.43 21.6401 20.29C21.5701 20.15 21.2901 20 20.7701 20C20.4601 20 20.2301 20.1 20.1001 20.27C19.9801 20.44 19.9601 20.7 20.0601 20.99Z" fill="white"/>
</svg>
