<svg width="24" height="25" viewBox="0 0 24 25" fill="none" xmlns="http://www.w3.org/2000/svg">
<path d="M9.78012 22.1298C10.9601 22.1298 12.6301 21.2998 13.9501 17.3298L14.6701 15.1698L16.8301 14.4498C20.7901 13.1298 21.6201 11.4598 21.6201 10.2798C21.6201 9.10983 20.7901 7.42983 16.8301 6.09983L8.34012 3.26983C6.22012 2.55983 4.45012 2.76983 3.36012 3.84983C2.27012 4.92983 2.06012 6.70983 2.77012 8.82983L5.60012 17.3198C6.93012 21.2998 8.60012 22.1298 9.78012 22.1298ZM16.3601 7.52983C19.1401 8.45983 20.1301 9.55983 20.1301 10.2798C20.1301 10.9998 19.1401 12.0998 16.3601 13.0198L13.8401 13.8598C13.6201 13.9298 13.4401 14.1098 13.3701 14.3298L12.5301 16.8498C11.6101 19.6298 10.5001 20.6198 9.78012 20.6198C9.06012 20.6198 7.96012 19.6298 7.03012 16.8498L4.20012 8.35983C3.69012 6.81983 3.78012 5.55983 4.43012 4.90983C5.08012 4.25983 6.34012 4.17983 7.87012 4.68983L16.3601 7.52983Z" fill="#F6F6F6"/>
<path d="M13.8902 14.9C14.0802 14.9 14.2702 14.83 14.4202 14.68C14.7102 14.39 14.7102 13.91 14.4202 13.62L10.8402 10.03C10.5502 9.74 10.0702 9.74 9.78019 10.03C9.49019 10.32 9.49019 10.8 9.78019 11.09L13.3602 14.68C13.5002 14.83 13.7002 14.9 13.8902 14.9Z" fill="#F6F6F6"/>
</svg>
