<svg width="751" height="501" viewBox="0 0 751 501" fill="none" xmlns="http://www.w3.org/2000/svg">
<circle opacity="0.1" cx="171.293" cy="250.293" r="250.293" fill="#5C85E8"/>
<g opacity="0.3">
<path d="M721.563 270.336H750.789V366.931H721.563V270.336ZM750.115 271.01H722.313V366.106H750.115V271.01Z" fill="#EA9117"/>
<path d="M745.094 279.928H727.184V280.677H745.094V279.928Z" fill="#EA9117"/>
<path d="M745.094 290.869H727.184V291.618H745.094V290.869Z" fill="#EA9117"/>
<path d="M745.094 301.81H727.184V302.559H745.094V301.81Z" fill="#EA9117"/>
<path d="M745.094 312.75H727.184V313.5H745.094V312.75Z" fill="#EA9117"/>
<path d="M745.094 323.691H727.184V324.441H745.094V323.691Z" fill="#EA9117"/>
<path d="M745.094 334.632H727.184V335.382H745.094V334.632Z" fill="#EA9117"/>
<path d="M745.094 345.573H727.184V346.323H745.094V345.573Z" fill="#EA9117"/>
<path d="M745.094 356.514H727.184V357.264H745.094V356.514Z" fill="#EA9117"/>
<path d="M724.862 238.637H747.494V270.71H724.862V238.637ZM746.744 239.386H725.537V270.036H746.744V239.386Z" fill="#EA9117"/>
<path d="M742.698 245.456H729.733V246.205H742.698V245.456Z" fill="#EA9117"/>
<path d="M742.698 254.299H729.733V255.048H742.698V254.299Z" fill="#EA9117"/>
<path d="M742.698 263.216H729.733V263.966H742.698V263.216Z" fill="#EA9117"/>
<path d="M727.184 221.401H745.169V239.386H727.184V221.401ZM744.42 222.075H727.859V238.562H744.42V222.075Z" fill="#EA9117"/>
<path d="M729.807 203.116H742.546V222.075H729.807V203.116ZM741.872 203.866H730.556V221.401H741.872V203.866Z" fill="#EA9117"/>
<path d="M736.551 185.581H735.801V203.491H736.551V185.581Z" fill="#EA9117"/>
<path d="M668.583 270.336H697.808V366.931H668.583V270.336ZM697.059 271.01H669.257V366.106H697.059V271.01Z" fill="#EA9117"/>
<path d="M692.113 279.928H674.203V280.677H692.113V279.928Z" fill="#EA9117"/>
<path d="M692.113 290.869H674.203V291.618H692.113V290.869Z" fill="#EA9117"/>
<path d="M692.113 301.81H674.203V302.559H692.113V301.81Z" fill="#EA9117"/>
<path d="M692.113 312.75H674.203V313.5H692.113V312.75Z" fill="#EA9117"/>
<path d="M692.113 323.691H674.203V324.441H692.113V323.691Z" fill="#EA9117"/>
<path d="M692.113 334.632H674.203V335.382H692.113V334.632Z" fill="#EA9117"/>
<path d="M692.113 345.573H674.203V346.323H692.113V345.573Z" fill="#EA9117"/>
<path d="M692.113 356.514H674.203V357.264H692.113V356.514Z" fill="#EA9117"/>
<path d="M671.878 238.637H694.51V270.71H671.878V238.637ZM693.76 239.386H672.553V270.036H693.76V239.386Z" fill="#EA9117"/>
<path d="M689.638 245.456H676.673V246.205H689.638V245.456Z" fill="#EA9117"/>
<path d="M689.638 254.299H676.673V255.048H689.638V254.299Z" fill="#EA9117"/>
<path d="M689.638 263.216H676.673V263.966H689.638V263.216Z" fill="#EA9117"/>
<path d="M674.203 221.401H692.188V239.386H674.203V221.401ZM691.438 222.075H674.877V238.562H691.438V222.075Z" fill="#EA9117"/>
<path d="M676.75 203.116H689.489V222.075H676.75V203.116ZM688.815 203.865H677.499V221.401H688.815V203.865Z" fill="#EA9117"/>
<path d="M683.57 185.581H682.821V203.491H683.57V185.581Z" fill="#EA9117"/>
<path d="M697.059 283.075H722.238V293.716H697.059V283.075ZM721.563 283.824H697.808V293.042H721.563V283.824Z" fill="#EA9117"/>
<path d="M697.059 307.805H722.238V318.446H697.059V307.805ZM721.563 308.479H697.808V317.696H721.563V308.479Z" fill="#EA9117"/>
<path d="M605.857 301.81H654.042V366.856H605.857V301.81ZM653.293 302.559H606.606V366.181H653.293V302.559Z" fill="#EA9117"/>
<path d="M632.986 310.727H645.726V323.467H632.986V310.727ZM645.051 311.402H633.736V322.717H645.051V311.402Z" fill="#EA9117"/>
<path d="M614.176 310.727H626.916V323.467H614.176V310.727ZM626.166 311.402H614.851V322.717H626.166V311.402Z" fill="#EA9117"/>
<path d="M632.986 327.963H645.726V340.702H632.986V327.963ZM645.051 328.712H633.736V340.028H645.051V328.712Z" fill="#EA9117"/>
<path d="M614.176 327.963H626.916V340.702H614.176V327.963ZM626.166 328.712H614.851V340.028H626.166V328.712Z" fill="#EA9117"/>
<path d="M632.986 345.199H645.726V357.938H632.986V345.199ZM645.051 345.948H633.736V357.264H645.051V345.948Z" fill="#EA9117"/>
<path d="M614.176 345.199H626.916V357.938H614.176V345.199ZM626.166 345.948H614.851V357.264H626.166V345.948Z" fill="#EA9117"/>
<path d="M94.332 301.81H142.517V366.856H94.332V301.81ZM141.768 302.559H95.0814V366.181H141.768V302.559Z" fill="#EA9117"/>
<path d="M121.459 310.727H134.198V323.467H121.459V310.727ZM133.449 311.402H122.133V322.717H133.449V311.402Z" fill="#EA9117"/>
<path d="M102.575 310.727H115.315V323.467H102.575V310.727ZM114.64 311.402H103.325V322.717H114.64V311.402Z" fill="#EA9117"/>
<path d="M121.459 327.963H134.198V340.702H121.459V327.963ZM133.449 328.712H122.133V340.028H133.449V328.712Z" fill="#EA9117"/>
<path d="M102.575 327.963H115.315V340.702H102.575V327.963ZM114.64 328.712H103.325V340.028H114.64V328.712Z" fill="#EA9117"/>
<path d="M121.459 345.199H134.198V357.938H121.459V345.199ZM133.449 345.948H122.133V357.264H133.449V345.948Z" fill="#EA9117"/>
<path d="M102.575 345.199H115.315V357.938H102.575V345.199ZM114.64 345.948H103.325V357.264H114.64V345.948Z" fill="#EA9117"/>
<path d="M546.132 279.927H593.943V366.855H546.132V279.927ZM593.268 280.677H546.882V366.181H593.268V280.677Z" fill="#EA9117"/>
<path d="M585.176 292.142H554.976V292.892H585.176V292.142Z" fill="#EA9117"/>
<path d="M585.176 304.507H554.976V305.256H585.176V304.507Z" fill="#EA9117"/>
<path d="M585.176 316.872H554.976V317.621H585.176V316.872Z" fill="#EA9117"/>
<path d="M585.176 329.237H554.976V329.986H585.176V329.237Z" fill="#EA9117"/>
<path d="M585.176 341.526H554.976V342.276H585.176V341.526Z" fill="#EA9117"/>
<path d="M585.176 353.891H554.976V354.64H585.176V353.891Z" fill="#EA9117"/>
<path d="M554.601 267.862H585.55V280.602H554.601V267.862ZM584.801 268.612H555.35V279.927H584.801V268.612Z" fill="#EA9117"/>
<path d="M157.204 279.927H205.015V366.855H157.204V279.927ZM204.34 280.677H157.953V366.181H204.34V280.677Z" fill="#EA9117"/>
<path d="M196.247 292.142H166.047V292.892H196.247V292.142Z" fill="#EA9117"/>
<path d="M196.247 304.507H166.047V305.256H196.247V304.507Z" fill="#EA9117"/>
<path d="M196.247 316.872H166.047V317.621H196.247V316.872Z" fill="#EA9117"/>
<path d="M196.247 329.237H166.047V329.986H196.247V329.237Z" fill="#EA9117"/>
<path d="M196.247 341.526H166.047V342.276H196.247V341.526Z" fill="#EA9117"/>
<path d="M196.247 353.891H166.047V354.64H196.247V353.891Z" fill="#EA9117"/>
<path d="M165.672 267.862H196.622V280.602H165.672V267.862ZM195.872 268.612H166.422V279.927H195.872V268.612Z" fill="#EA9117"/>
<path d="M400.527 279.927H448.338V366.855H400.527V279.927ZM447.663 280.677H401.277V366.181H447.663V280.677Z" fill="#EA9117"/>
<path d="M439.571 292.142H409.371V292.892H439.571V292.142Z" fill="#EA9117"/>
<path d="M439.571 304.507H409.371V305.256H439.571V304.507Z" fill="#EA9117"/>
<path d="M439.571 316.872H409.371V317.621H439.571V316.872Z" fill="#EA9117"/>
<path d="M439.571 329.237H409.371V329.986H439.571V329.237Z" fill="#EA9117"/>
<path d="M439.571 341.526H409.371V342.276H439.571V341.526Z" fill="#EA9117"/>
<path d="M439.571 353.891H409.371V354.641H439.571V353.891Z" fill="#EA9117"/>
<path d="M408.996 267.862H439.945V280.602H408.996V267.862ZM439.196 268.612H409.745V279.927H439.196V268.612Z" fill="#EA9117"/>
<path d="M463.849 221.401H530.769V366.856H463.849V221.401ZM530.019 222.076H464.524V366.106H530.019V222.076Z" fill="#EA9117"/>
<path d="M497.648 221.776H496.898V366.556H497.648V221.776Z" fill="#EA9117"/>
<path d="M522.302 236.614H504.392V237.363H522.302V236.614Z" fill="#EA9117"/>
<path d="M522.302 247.555H504.392V248.304H522.302V247.555Z" fill="#EA9117"/>
<path d="M522.302 258.496H504.392V259.245H522.302V258.496Z" fill="#EA9117"/>
<path d="M522.302 269.437H504.392V270.186H522.302V269.437Z" fill="#EA9117"/>
<path d="M522.302 280.452H504.392V281.202H522.302V280.452Z" fill="#EA9117"/>
<path d="M488.955 307.055H471.044V307.805H488.955V307.055Z" fill="#EA9117"/>
<path d="M488.955 317.996H471.044V318.746H488.955V317.996Z" fill="#EA9117"/>
<path d="M488.955 328.937H471.044V329.687H488.955V328.937Z" fill="#EA9117"/>
<path d="M488.955 339.878H471.044V340.628H488.955V339.878Z" fill="#EA9117"/>
<path d="M488.955 350.819H471.044V351.569H488.955V350.819Z" fill="#EA9117"/>
<path d="M470.67 212.259H522.677V222.076H470.67V212.259ZM521.928 213.008H471.419V221.401H521.928V213.008Z" fill="#EA9117"/>
<path d="M280.626 316.872H387.862V366.856H280.626V316.872ZM387.113 317.547H281.3V366.106H387.113V317.547Z" fill="#EA9117"/>
<path d="M280.626 304.507H334.581V317.547H280.626V304.507ZM333.832 305.257H281.3V316.872H333.832V305.257Z" fill="#EA9117"/>
<path d="M334.581 317.247H333.832V366.556H334.581V317.247Z" fill="#EA9117"/>
<path d="M377.372 357.488H344.024V358.238H377.372V357.488Z" fill="#EA9117"/>
<path d="M377.372 350.819H344.024V351.568H377.372V350.819Z" fill="#EA9117"/>
<path d="M324.239 331.335H290.892V332.084H324.239V331.335Z" fill="#EA9117"/>
<path d="M324.239 324.666H290.892V325.415H324.239V324.666Z" fill="#EA9117"/>
<path d="M-31.7891 316.872H75.4472V366.856H-31.7891V316.872ZM74.6978 317.546H-31.0397V366.106H74.7727V317.546H74.6978Z" fill="#EA9117"/>
<path d="M-31.7891 304.507H22.1663V317.546H-31.7891V304.507ZM21.4918 305.257H-31.0397V316.872H21.4918V305.257Z" fill="#EA9117"/>
<path d="M22.2425 317.247H21.4932V366.556H22.2425V317.247Z" fill="#EA9117"/>
<path d="M64.9573 357.488H31.6099V358.238H64.9573V357.488Z" fill="#EA9117"/>
<path d="M64.9573 350.819H31.6099V351.568H64.9573V350.819Z" fill="#EA9117"/>
<path d="M11.9006 331.335H-21.4468V332.084H11.9006V331.335Z" fill="#EA9117"/>
<path d="M11.9006 324.665H-21.4468V325.415H11.9006V324.665Z" fill="#EA9117"/>
<path d="M219.704 301.81H267.889V366.856H219.704V301.81ZM267.14 302.559H220.453V366.181H267.14V302.559Z" fill="#EA9117"/>
<path d="M246.831 310.727H259.571V323.467H246.831V310.727ZM258.821 311.402H247.506V322.717H258.821V311.402Z" fill="#EA9117"/>
<path d="M227.947 310.727H240.686V323.467H227.947V310.727ZM240.012 311.402H228.696V322.717H240.012V311.402Z" fill="#EA9117"/>
<path d="M246.831 327.963H259.571V340.702H246.831V327.963ZM258.821 328.712H247.506V340.028H258.821V328.712Z" fill="#EA9117"/>
<path d="M227.947 327.963H240.686V340.702H227.947V327.963ZM240.012 328.712H228.696V340.028H240.012V328.712Z" fill="#EA9117"/>
<path d="M246.831 345.199H259.571V357.938H246.831V345.199ZM258.821 345.948H247.506V357.264H258.821V345.948Z" fill="#EA9117"/>
<path d="M227.947 345.199H240.686V357.938H227.947V345.199ZM240.012 345.948H228.696V357.264H240.012V345.948Z" fill="#EA9117"/>
<path d="M227.947 263.291H259.571V302.484H227.947V263.291ZM258.821 264.041H228.621V301.81H258.821V264.041Z" fill="#EA9117"/>
<path d="M234.018 236.614H253.577V264.041H234.018V236.614ZM252.827 237.363H234.693V263.291H252.827V237.363Z" fill="#EA9117"/>
<path d="M244.135 212.633H243.386V236.988H244.135V212.633Z" fill="#EA9117"/>
</g>
</svg>
