<svg width="25" height="25" viewBox="0 0 25 25" fill="none" xmlns="http://www.w3.org/2000/svg">
<path d="M18.3013 18.5901H7.65132C6.66132 18.5901 5.71132 18.1701 5.04132 17.4401C4.37132 16.7101 4.03133 15.7301 4.11133 14.7401L4.94133 4.78009C4.97133 4.47009 4.86132 4.17009 4.65132 3.94009C4.44132 3.71009 4.15132 3.59009 3.84132 3.59009H2.11133C1.70133 3.59009 1.36133 3.25009 1.36133 2.84009C1.36133 2.43009 1.70133 2.09009 2.11133 2.09009H3.85133C4.58133 2.09009 5.27132 2.40008 5.76132 2.93008C6.03132 3.23008 6.23132 3.58009 6.34132 3.97009H18.8313C19.8413 3.97009 20.7713 4.37009 21.4513 5.09009C22.1213 5.82009 22.4613 6.77009 22.3813 7.78009L21.8413 15.2801C21.7313 17.1101 20.1313 18.5901 18.3013 18.5901ZM6.39133 5.46008L5.61133 14.8601C5.56133 15.4401 5.75133 15.9901 6.14133 16.4201C6.53133 16.8501 7.07132 17.0801 7.65132 17.0801H18.3013C19.3413 17.0801 20.2813 16.2001 20.3613 15.1601L20.9013 7.6601C20.9413 7.0701 20.7513 6.5101 20.3613 6.1001C19.9713 5.6801 19.4313 5.45007 18.8413 5.45007H6.39133V5.46008Z" fill="white"/>
<path d="M16.3613 23.5901C15.2613 23.5901 14.3613 22.6901 14.3613 21.5901C14.3613 20.4901 15.2613 19.5901 16.3613 19.5901C17.4613 19.5901 18.3613 20.4901 18.3613 21.5901C18.3613 22.6901 17.4613 23.5901 16.3613 23.5901ZM16.3613 21.0901C16.0813 21.0901 15.8613 21.3101 15.8613 21.5901C15.8613 21.8701 16.0813 22.0901 16.3613 22.0901C16.6413 22.0901 16.8613 21.8701 16.8613 21.5901C16.8613 21.3101 16.6413 21.0901 16.3613 21.0901Z" fill="white"/>
<path d="M8.36133 23.5901C7.26133 23.5901 6.36133 22.6901 6.36133 21.5901C6.36133 20.4901 7.26133 19.5901 8.36133 19.5901C9.46133 19.5901 10.3613 20.4901 10.3613 21.5901C10.3613 22.6901 9.46133 23.5901 8.36133 23.5901ZM8.36133 21.0901C8.08133 21.0901 7.86133 21.3101 7.86133 21.5901C7.86133 21.8701 8.08133 22.0901 8.36133 22.0901C8.64133 22.0901 8.86133 21.8701 8.86133 21.5901C8.86133 21.3101 8.64133 21.0901 8.36133 21.0901Z" fill="white"/>
<path d="M21.1113 9.59009H9.11133C8.70133 9.59009 8.36133 9.25009 8.36133 8.84009C8.36133 8.43009 8.70133 8.09009 9.11133 8.09009H21.1113C21.5213 8.09009 21.8613 8.43009 21.8613 8.84009C21.8613 9.25009 21.5213 9.59009 21.1113 9.59009Z" fill="white"/>
</svg>
