<svg width="32" height="32" viewBox="0 0 32 32" fill="none" xmlns="http://www.w3.org/2000/svg">
<path fill-rule="evenodd" clip-rule="evenodd" d="M15.7223 0.48877C19.7268 0.48877 23.5406 2.01428 26.4009 4.8746C29.2612 7.73494 30.9774 11.5487 30.9774 15.5531C30.9774 23.9434 24.1126 30.8082 15.7223 30.8082C13.3979 30.8082 11.0735 30.1376 8.9063 29.1107C8.62764 28.9787 8.31175 28.9444 8.01347 29.0225L2.59959 30.4404C1.6524 30.6885 0.792126 29.8176 1.05175 28.8736L2.42306 23.887C2.51375 23.5572 2.46546 23.2061 2.30347 22.9048C1.13095 20.7242 0.467285 18.234 0.467285 15.7438C0.467285 7.35355 7.33206 0.48877 15.7223 0.48877Z" fill="#0B49DC"/>
<path fill-rule="evenodd" clip-rule="evenodd" d="M9.05081 26.3087C10.9371 27.4865 13.215 28.099 15.5028 28.1395C22.5572 28.2645 28.1875 22.6426 28.3058 15.9696C28.3665 12.5378 27.2767 9.46697 24.842 6.94451C22.404 4.6127 19.3771 3.22406 15.9452 3.16325C9.08155 3.04166 3.26046 8.66008 3.13886 15.5237C3.09834 17.8117 3.62978 20.1097 4.92724 22.2306C5.16257 22.5975 5.22371 23.0497 5.09427 23.4659L4.01869 26.9244C3.95945 27.1149 4.13265 27.2963 4.32568 27.2459L8.26027 26.2191C8.52578 26.1497 8.80758 26.1817 9.05081 26.3087ZM19.8864 17.5369C20.2678 17.5436 22.1575 18.5308 22.5354 18.7282C22.5943 18.759 22.6531 18.785 22.7114 18.8108C23.027 18.9507 23.3217 19.0813 23.4684 19.889C23.5185 20.1646 23.6455 20.655 23.2473 21.6016C22.9287 22.3588 21.2973 23.3061 20.7384 23.2736C20.6092 23.2713 20.4853 23.2801 20.3529 23.2893C19.704 23.3352 18.8518 23.3954 16.1794 22.2393C12.8619 20.8436 10.6028 17.5631 9.96839 16.6418C9.87877 16.5116 9.82157 16.4286 9.7984 16.4046C9.76709 16.3391 9.70328 16.2344 9.61916 16.0962C9.20916 15.4227 8.31606 13.9558 8.34408 12.3738C8.37786 10.4672 9.348 9.5308 9.73608 9.15623C10.1241 8.78168 10.5055 8.78843 10.6961 8.79181L11.4588 8.80532C11.6495 8.80869 12.0308 8.81546 12.2113 9.39081C12.5791 10.1602 13.308 12.0803 13.3046 12.271C13.3034 12.3345 13.3235 12.3984 13.3436 12.4624C13.3837 12.5902 13.4238 12.7181 13.2944 12.8429C13.1974 12.9365 13.1481 13.031 13.0987 13.1255C13.0494 13.22 13 13.3146 12.903 13.4081L12.3209 13.97C12.1269 14.1573 11.9328 14.3445 12.1167 14.7292C12.3006 15.1139 13.0396 16.4621 14.1667 17.4356C15.4339 18.5847 16.4415 19.0501 16.9524 19.286C17.0469 19.3296 17.1244 19.3655 17.1834 19.3962C17.5647 19.403 17.7554 19.4064 17.9495 19.219C18.0481 19.0301 18.2916 18.7484 18.5349 18.4666C18.7784 18.1849 19.0217 17.903 19.1203 17.7141C19.3177 17.3362 19.5086 17.3395 19.8864 17.5369Z" fill="white"/>
</svg>
