<svg width="25" height="24" viewBox="0 0 25 24" fill="none" xmlns="http://www.w3.org/2000/svg">
<path d="M12.5 12.7502C9.33 12.7502 6.75 10.1702 6.75 7.00017C6.75 3.83017 9.33 1.25017 12.5 1.25017C15.67 1.25017 18.25 3.83017 18.25 7.00017C18.25 10.1702 15.67 12.7502 12.5 12.7502ZM12.5 2.75017C10.16 2.75017 8.25 4.66017 8.25 7.00017C8.25 9.34017 10.16 11.2502 12.5 11.2502C14.84 11.2502 16.75 9.34017 16.75 7.00017C16.75 4.66017 14.84 2.75017 12.5 2.75017Z" fill="white"/>
<path d="M21.0901 22.7502C20.6801 22.7502 20.3401 22.4102 20.3401 22.0002C20.3401 18.5502 16.8202 15.7502 12.5002 15.7502C8.18015 15.7502 4.66016 18.5502 4.66016 22.0002C4.66016 22.4102 4.32016 22.7502 3.91016 22.7502C3.50016 22.7502 3.16016 22.4102 3.16016 22.0002C3.16016 17.7302 7.35015 14.2502 12.5002 14.2502C17.6502 14.2502 21.8401 17.7302 21.8401 22.0002C21.8401 22.4102 21.5001 22.7502 21.0901 22.7502Z" fill="white"/>
</svg>
