<svg width="9" height="7" viewBox="0 0 9 7" fill="none" xmlns="http://www.w3.org/2000/svg">
<path d="M5.14648 0.982031C5.16211 0.997656 5.20117 1.03379 5.26367 1.09043C5.32617 1.14707 5.38867 1.20469 5.45117 1.26328C5.69727 1.51719 5.93164 1.78086 6.1543 2.0543C6.37695 2.32383 6.58887 2.6041 6.79004 2.89512C6.99121 3.18613 7.17969 3.48398 7.35547 3.78867C7.53516 4.09336 7.69922 4.40586 7.84766 4.72617C7.89844 4.83555 7.94043 4.94883 7.97363 5.06602C8.00684 5.1832 8.0332 5.30234 8.05273 5.42344C8.05273 5.51719 8.04102 5.60996 8.01758 5.70176C7.99414 5.79355 7.96094 5.88047 7.91797 5.9625C7.85938 6.06797 7.7832 6.16074 7.68945 6.24082C7.5957 6.3209 7.49219 6.38437 7.37891 6.43125C7.27734 6.4625 7.17285 6.49082 7.06543 6.51621C6.95801 6.5416 6.85156 6.56602 6.74609 6.58945C6.55859 6.61289 6.36914 6.63437 6.17773 6.65391C5.99023 6.67344 5.80176 6.69004 5.6123 6.70371C5.42285 6.71738 5.23242 6.72617 5.04102 6.73008C4.85352 6.73398 4.66406 6.73398 4.47266 6.73008C4.28906 6.73398 4.10547 6.73203 3.92188 6.72422C3.73828 6.72031 3.55469 6.71348 3.37109 6.70371C3.1875 6.69394 3.00391 6.6793 2.82031 6.65977C2.63672 6.64414 2.45508 6.62461 2.27539 6.60117C2.13867 6.57773 2.00391 6.54941 1.87109 6.51621C1.73828 6.48301 1.60742 6.44492 1.47852 6.40195C1.30273 6.31211 1.16113 6.18223 1.05371 6.0123C0.946289 5.84238 0.890625 5.65781 0.886719 5.45859V5.42344C0.910156 5.28672 0.942383 5.15293 0.983398 5.02207C1.02441 4.89121 1.07422 4.76328 1.13281 4.63828C1.28516 4.32578 1.44727 4.01914 1.61914 3.71836C1.79492 3.42148 1.98242 3.13145 2.18164 2.84824C2.38086 2.56504 2.58984 2.29062 2.80859 2.025C3.02734 1.75937 3.25781 1.50156 3.5 1.25156C3.55078 1.20078 3.60449 1.15195 3.66113 1.10508C3.71777 1.0582 3.77344 1.01133 3.82812 0.964453C3.92188 0.898047 4.02344 0.847266 4.13281 0.812109C4.24219 0.776953 4.35352 0.761328 4.4668 0.765234C4.58789 0.761328 4.70703 0.778906 4.82422 0.817969C4.94141 0.857031 5.04883 0.911719 5.14648 0.982031Z" fill="#0ED065"/>
</svg>
