<svg width="8" height="2" viewBox="0 0 8 2" fill="none" xmlns="http://www.w3.org/2000/svg">
<path d="M3.10742 1.89453H1.5625C1.4401 1.89453 1.32422 1.87044 1.21484 1.82227C1.10677 1.77539 1.01237 1.71126 0.931641 1.62988C0.850911 1.5485 0.787109 1.45378 0.740234 1.3457C0.694661 1.23633 0.671875 1.11979 0.671875 0.996094C0.671875 0.885417 0.691406 0.779948 0.730469 0.679688C0.769531 0.579427 0.823568 0.489909 0.892578 0.411133C0.961589 0.332357 1.04297 0.266927 1.13672 0.214844C1.23177 0.16276 1.33398 0.128906 1.44336 0.113281L1.5625 0.107422L6.44531 0.105469C6.56901 0.105469 6.6849 0.128906 6.79297 0.175781C6.90234 0.223958 6.9974 0.288411 7.07812 0.369141C7.15885 0.44987 7.22201 0.544922 7.26758 0.654297C7.31445 0.76237 7.33789 0.878255 7.33789 1.00195C7.33789 1.11393 7.31836 1.22005 7.2793 1.32031C7.24023 1.42057 7.1862 1.51009 7.11719 1.58887C7.04818 1.66764 6.96615 1.73307 6.87109 1.78516C6.77734 1.83724 6.67513 1.87044 6.56445 1.88477L6.44531 1.89258L3.10742 1.89453Z" fill="#0B49DC"/>
</svg>
